<svg width="2002" height="546" viewBox="0 0 2002 546" fill="none" xmlns="http://www.w3.org/2000/svg">
<path fill-rule="evenodd" clip-rule="evenodd" d="M869.449 244.134C883.703 247.196 903.045 264.546 895.919 288.22C892.456 300.06 877.185 305.164 870.06 314.146C871.891 325.779 885.943 336.804 893.882 343.337C920.964 364.975 941.732 389.875 973.909 407.838C985.92 414.368 1004.45 416.817 1012.6 427.434C1012.19 428.453 1011.78 429.269 1011.17 430.289C995.694 430.289 985.92 426.614 972.686 425.391C961.892 424.372 952.935 428.453 944.178 430.289C916.484 435.392 892.051 406.612 882.277 392.73C868.635 373.547 882.071 330.68 849.698 330.477C838.089 336.394 831.167 351.705 823.224 361.5C808.159 380.283 784.537 392.73 760.918 402.941C750.941 407.225 734.244 418.452 722.842 413.145C723.453 412.329 724.264 411.306 724.875 410.494C748.498 400.079 784.131 379.873 798.791 360.891C807.139 350.479 811.416 337.413 818.545 325.576C824.042 316.388 835.647 311.697 836.258 298.431C828.724 283.529 807.139 258.623 794.311 249.031C794.72 248.008 795.534 247.196 796.142 246.173H796.753C825.873 247.395 827.707 283.116 847.049 286.791C858.861 276.993 864.357 260.665 869.449 244.134ZM899.99 167.379C928.498 166.156 962.706 194.328 933.181 208.207C926.258 206.774 918.927 200.244 910.785 202.084C904.879 203.306 902.639 207.187 893.882 207.387V206.165C893.679 205.755 893.477 205.552 893.271 205.348C895.308 197.796 902.433 193.508 906.099 186.978C904.47 175.954 891.233 173.709 882.277 179.629C870.06 187.591 866.395 204.939 853.158 212.901C841.961 219.637 824.856 216.985 811.007 221.676C798.588 227.799 786.165 233.923 773.746 240.049C771.506 238.823 770.894 238.21 769.671 235.965C773.134 216.576 795.331 209.636 808.362 199.225C816.71 190.446 825.058 181.668 833.407 172.689H834.221V175.544C832.593 179.016 829.332 184.323 830.762 188.404C831.778 190.653 831.778 190.653 834.221 191.879C846.438 195.14 891.439 173.303 899.99 167.379ZM824.042 46.1316C835.647 46.1316 886.551 62.8691 890.423 68.5861C894.899 75.3224 892.254 91.4504 895.919 97.9801C901.214 99.6125 921.37 101.448 931.144 98.5931C936.644 95.3248 942.144 92.2631 947.435 88.9983C958.027 86.7529 981.034 94.9185 978.794 103.284C971.463 115.124 960.06 110.227 944.178 114.311C932.776 117.166 886.959 140.437 879.016 136.762C879.223 136.149 879.426 135.743 879.628 135.333C888.385 132.478 895.919 127.784 902.028 122.473C901.825 120.841 901.622 119.209 901.416 117.576C900.197 115.331 900.197 115.331 897.957 114.311C879.628 109.614 861.915 129.007 849.087 134.72C837.481 139.621 826.079 142.686 809.788 142.886C815.284 129.823 860.898 119.618 855.195 91.0371C851.529 72.2608 830.761 63.279 822.616 47.5608C823.021 47.1545 823.43 46.5414 824.042 46.1316ZM1330.45 396.814V399.673C1330.04 399.876 1329.43 400.079 1328.82 400.286C1328.21 399.876 1327.8 399.266 1327.4 398.853C1327.6 398.447 1327.8 398.04 1328.01 397.63C1329.03 397.427 1329.84 397.017 1330.45 396.814ZM1330.45 399.673V396.814C1382.99 375.383 1432.06 322.924 1464.43 281.487C1471.15 273.118 1501.7 241.272 1496 226.577C1492.54 219.84 1484.39 221.067 1480.11 215.553C1479.3 212.698 1478.48 209.636 1477.67 206.774C1474.41 202.693 1470.34 203.919 1465.86 201.264C1459.35 193.918 1452.42 186.365 1445.5 178.813H1446.92C1457.92 175.341 1493.76 198.409 1519.62 191.059C1530.82 187.998 1538.35 171.26 1544.05 161.869C1559.32 136.149 1572.97 106.349 1579.48 71.4446C1580.91 62.2596 1575.41 57.9719 1576.43 51.6419C1582.74 53.2778 1587.42 59.4011 1590.68 63.8885C1615.73 95.3248 1594.14 120.435 1579.48 149.622C1576.02 155.952 1566.25 168.199 1569.3 176.771C1569.71 177.79 1570.11 178.606 1570.52 179.629C1592.31 186.162 1626.93 152.48 1642.4 178.2C1641.99 179.219 1641.79 180.445 1641.59 181.668C1629.78 187.998 1615.12 188.404 1600.25 193.918C1595.97 196.163 1591.09 198.409 1586.81 200.651C1572.56 204.532 1561.15 202.9 1550.77 209.429C1539.37 216.576 1532.04 234.742 1524.91 246.173C1520.84 253.112 1504.95 270.057 1507.2 278.629C1511.47 286.997 1526.75 292.714 1533.67 298.431C1555.25 315.575 1571.33 340.275 1601.68 348.031C1616.13 351.705 1640.77 344.762 1652.58 349.46C1649.94 360.071 1614.3 365.381 1604.52 372.321C1600.05 375.383 1597.6 381.506 1591.49 382.525H1588.24C1546.5 367.83 1538.35 287.2 1499.87 286.791C1471.36 323.944 1437.56 352.725 1393.37 373.75C1372.4 382.322 1351.42 391.101 1330.45 399.673ZM1330.45 435.189V431.515C1331.67 431.925 1332.69 432.331 1333.71 432.944C1333.5 433.35 1333.3 433.76 1333.1 434.373C1332.08 434.779 1331.26 434.986 1330.45 435.189ZM1860.28 394.772V396.205C1860.07 395.998 1859.87 395.791 1859.46 395.592C1859.87 395.385 1860.07 394.979 1860.28 394.772Z" fill="black"/>
<path d="M72.2656 390.894C66.9679 394.979 61.272 398.447 55.7717 397.63V396.814C59.2347 393.956 66.3599 383.751 72.2656 371.911C78.9854 358.032 84.0734 341.907 78.1677 332.516C76.9481 330.27 74.7082 328.841 72.2656 327.822C65.7484 324.963 56.7885 325.166 51.0856 321.495C39.0751 311.084 27.0575 300.673 15.047 290.262C15.4524 289.04 16.064 288.017 16.4728 286.791C27.6691 290.059 39.075 293.121 50.4775 296.389C59.2346 298.225 65.951 294.55 72.2656 293.121C72.4682 293.121 72.6709 293.121 72.877 292.917C92.6278 289.239 113.598 295.979 121.744 306.593C146.789 339.252 103.419 365.994 83.668 381.303C80.6139 383.545 76.5428 387.426 72.2656 390.894Z" fill="black"/>
<path d="M72.2656 481.321H72.0593C65.7483 493.571 62.8968 511.531 49.6633 516.635C22.7838 527.249 -21.8092 469.484 12.3982 453.356C17.4897 457.437 22.7838 461.522 28.0779 465.603C41.923 469.277 58.6231 454.785 72.2656 441.109C80.205 432.944 87.131 425.188 91.8136 421.311C111.97 405.39 136.403 387.629 146.789 362.113C150.454 353.135 147.197 341.294 149.437 329.048C151.269 318.227 153.103 307.203 154.934 296.389C155.14 268.421 155.34 240.253 155.546 212.288C157.174 203.513 155.546 190.446 157.583 179.629C161.249 161.462 167.563 131.252 163.286 106.146C158.806 80.8327 148.214 61.8497 132.538 48.1739C127.653 43.8861 109.527 38.7822 110.139 33.8849C121.744 33.8849 129.687 36.9466 139.258 38.7822C154.934 41.6442 169.188 36.7434 179.368 43.4798C198.51 55.9296 217.244 94.5121 208.487 129.21C203.808 148.196 192.608 161.869 185.476 178.2C176.313 199.428 172.651 225.761 168.58 250.257C168.783 274.954 169.188 300.06 169.394 324.963C173.465 338.639 177.334 352.112 181.405 365.585V379.873C185.682 398.653 194.845 419.269 171.837 428.863C161.043 427.84 142.924 416.617 141.292 407.022C141.701 403.144 142.312 399.266 142.718 395.592C142.106 394.569 141.292 393.753 140.68 392.73C139.258 392.936 138.035 393.143 136.609 393.549C129.278 397.63 125.818 411.919 120.93 418.656C106.068 439.68 84.2795 457.847 72.2656 481.321Z" fill="black"/>
<path fill-rule="evenodd" clip-rule="evenodd" d="M348.378 258.01C342.063 261.684 335.752 264.953 329.441 268.627C322.11 277.406 324.552 297.205 318.444 307.203C304.596 330.067 281.385 354.154 260.209 369.666C268.76 345.376 277.314 320.882 285.865 296.389C289.325 282.303 280.98 267.808 266.929 270.057C260.614 272.505 254.303 274.751 248.195 277.406C247.583 276.383 247.38 275.567 247.178 274.544C255.323 263.32 279.551 260.872 284.642 247.602C290.548 231.681 280.368 213.717 283.216 195.96C289.733 153.5 283.017 115.737 300.933 85.7335C311.521 88.9983 334.938 122.067 338.198 133.294C342.472 147.786 334.732 155.542 342.877 166.566C344.712 167.792 346.543 168.812 348.378 169.831C355.706 173.916 362.834 178.2 370.166 182.281C378.919 185.752 387.676 189.017 396.636 192.489C396.227 201.264 354.895 253.112 348.378 257.81V258.01ZM341.658 174.728C344.1 175.341 346.344 176.364 348.378 177.79C357.337 184.323 362.632 199.428 359.172 210.859C356.317 212.698 352.858 213.51 348.378 213.717C347.155 213.717 345.932 213.717 344.307 213.51C336.975 206.774 332.495 183.507 341.658 174.728Z" fill="black"/>
<path d="M348.378 418.656C346.543 418.859 344.509 418.859 342.269 418.656C334.533 433.963 323.333 455.398 310.298 465.603C306.43 468.664 296.044 475.607 289.936 469.684C290.345 469.277 290.957 468.664 291.362 468.258C296.045 457.237 321.296 429.882 315.187 416.004C313.559 412.532 311.521 411.306 309.079 409.064C291.159 409.674 277.719 415.188 264.891 406.409C265.297 405.796 265.705 404.983 266.317 404.37C266.722 404.164 267.334 403.96 267.54 403.757C278.534 407.432 307.653 398.653 313.153 391.507C316.208 384.977 319.461 378.647 322.515 372.321C326.998 373.34 331.678 374.16 336.161 375.179C340.435 375.996 344.509 375.792 348.378 375.383C359.371 373.953 368.74 370.279 376.274 379.873C395.417 404.57 376.679 417.839 348.378 418.656Z" fill="black"/>
<path d="M571.342 296.795C566.052 302.512 563.403 311.9 559.531 318.84C561.163 326.186 564.623 330.067 564.217 340.681C556.683 350.686 542.226 352.928 531.233 359.458C516.991 369.657 502.952 379.856 488.913 390.055L488.876 390.081C482.157 392.73 475.437 395.592 468.518 398.243C465.257 401.102 462.203 404.164 459.149 407.022V409.064C463.426 414.981 468.105 421.717 470.551 429.476C485.822 438.251 497.022 425.391 503.742 417.23C510.053 410.287 560.349 362.933 565.643 361.5C564.844 369.312 563.847 377.121 562.849 384.932L562.791 385.384C557.295 388.445 549.149 389.468 544.466 393.549C549.761 407.838 556.683 423.76 569.106 431.515C569.92 431.515 570.532 431.311 571.342 431.311C605.144 424.575 575.008 351.706 574.809 329.661C592.316 325.576 617.567 319.043 627.135 304.555C626.73 300.88 626.118 297.205 625.713 293.734C617.567 292.917 609.219 293.734 601.276 294.347C600.665 296.182 600.053 298.018 599.242 299.857C594.353 300.06 588.857 300.267 583.765 300.47V299.857C588.245 291.082 601.479 285.158 608.81 278.629C616.344 272.302 621.436 264.133 627.544 256.99C632.838 250.867 638.946 245.357 648.109 242.092C650.146 239.233 650.352 235.965 650.146 230.661C650.146 230.048 649.944 229.638 649.741 229.232C643.832 227.6 636.504 226.987 628.767 227.19C628.358 227.393 627.953 227.393 627.544 227.393C619.398 228.822 611.459 230.048 603.516 231.274C591.705 237.191 581.525 245.56 571.342 253.522C561.977 261.071 552.406 268.221 541.206 272.708C534.899 269.034 528.378 265.566 522.27 261.891C519.624 263.523 517.178 264.953 514.735 266.585C510.053 286.591 506.185 344.356 522.27 353.541C544.673 351.909 548.538 325.373 548.132 299.041C553.835 295.37 561.366 294.757 569.511 294.347L571.342 296.182C571.342 296.389 571.549 296.389 571.549 296.389C571.549 296.592 571.342 296.592 571.342 296.795Z" fill="black"/>
<path d="M571.342 168.402C569.717 168.812 568.288 169.218 566.866 169.421C559.531 171.26 556.683 177.587 547.521 178.2C550.781 167.792 565.643 165.75 571.342 156.155C571.744 155.559 571.943 154.965 572.144 154.369L572.16 154.32C574.809 148.603 574.197 143.499 571.342 138.805C561.977 123.086 530.01 112.476 523.493 99.2027V95.1216L523.651 95.1632C532.149 97.3948 540.652 99.6277 549.352 102.061C556.477 103.49 564.015 102.061 571.342 102.471C573.586 102.471 575.62 102.877 577.863 103.284C594.354 107.778 615.327 120.638 618.993 137.988C623.27 157.994 589.059 164.317 571.342 168.402Z" fill="black"/>
<path d="M571.342 220.863C561.163 225.151 550.575 229.025 540.395 231.274C527.158 234.129 489.488 234.129 491.525 220.453C500.485 220.863 509.441 221.27 518.198 221.676C538.152 217.802 554.443 208.207 571.342 200.651C572.363 200.244 573.38 199.838 574.197 199.225C581.934 196.57 589.059 193.918 596.593 191.059C602.09 186.978 607.587 182.894 612.885 178.813C617.973 176.158 622.861 174.322 627.544 172.28C631.615 170.647 635.686 168.812 639.355 165.953C648.72 166.156 657.072 172.28 660.326 178.813C659.714 179.832 659.106 180.648 658.495 181.668L657.672 182.181C650.415 186.707 643.152 191.238 635.892 195.96C633.244 196.98 630.395 198.002 627.544 198.815C619.196 201.674 610.641 204.532 602.09 207.387C592.722 211.269 582.34 216.372 571.342 220.863Z" fill="black"/>
<path d="M627.544 339.252C622.453 337.826 616.956 337.213 611.662 337.213C609.624 337.62 607.793 338.026 606.165 338.639C605.553 339.252 605.144 339.865 604.739 340.681C605.962 349.46 613.695 350.479 617.567 356.196C622.861 363.745 624.49 373.34 627.544 381.096C631.615 391.304 637.93 398.04 657.68 392.12C673.36 369.056 652.998 345.785 627.544 339.252Z" fill="black"/>
<path fill-rule="evenodd" clip-rule="evenodd" d="M1200.75 349.46C1199.73 355.377 1198.3 363.132 1197.89 373.75C1198.71 374.36 1199.73 374.566 1200.75 374.773C1203.39 375.179 1206.65 375.179 1209.91 375.179C1212.35 372.524 1214.59 370.075 1216.83 367.623C1217.64 352.928 1218.46 337.826 1219.48 322.924C1224.16 311.084 1236.78 304.555 1242.49 292.917C1241.67 275.973 1228.23 278.628 1221.1 269.444C1219.68 267.808 1217.64 239.233 1217.44 232.7C1228.84 219.84 1243.3 212.491 1260.81 206.165C1273.23 207.387 1271.81 219.637 1268.96 230.661C1265.9 245.357 1262.23 260.052 1258.77 274.544C1255.51 293.937 1259.79 316.801 1256.33 333.129C1253.68 344.149 1253.48 359.051 1244.52 363.542C1239.64 365.175 1235.16 360.481 1229.86 359.458H1229.25C1228.84 360.277 1228.43 361.297 1228.23 362.113C1233.73 369.872 1243.91 387.219 1258.37 383.345C1271.6 377.222 1264.48 347.824 1267.13 330.477C1270.38 307.816 1269.97 289.653 1274.66 268.627C1278.12 257.4 1281.79 245.97 1285.25 234.742V219.028C1287.28 214.533 1289.52 209.836 1291.56 205.348C1289.12 200.244 1285.86 196.776 1282.8 192.489C1257.15 186.162 1222.94 209.226 1200.75 232.903C1190.15 244.334 1182.41 255.561 1179.57 263.933C1177.12 265.359 1176.72 265.769 1172.64 265.972C1167.75 258.423 1174.07 252.296 1171.42 244.134C1170 242.092 1170.81 242.498 1167.35 242.092C1165.52 279.648 1123.98 319.25 1160.63 354.154H1163.28C1172.85 341.498 1166.94 315.778 1170.81 296.389C1173.46 283.729 1181.6 279.242 1184.86 268.627C1186.9 267.808 1187.3 267.401 1190.56 267.401C1191.38 268.221 1192.6 269.034 1193.62 270.057C1198.3 287.2 1187.51 298.018 1180.99 308.636V311.287C1192.39 319.656 1198.1 324.76 1200.75 329.454C1203.8 334.964 1202.58 340.068 1200.75 349.46ZM1193.01 259.236C1195.86 255.155 1197.69 251.683 1200.75 248.215L1200.78 248.184C1201.37 247.582 1201.98 246.975 1202.58 246.173C1206.65 249.031 1212.35 261.684 1204.82 265.359C1203.59 265.972 1202.17 266.175 1200.75 265.972C1199.11 265.769 1197.49 265.359 1196.67 264.546C1194.03 263.114 1193.62 262.504 1193.01 259.236ZM1196.67 309.245C1196.87 304.555 1198.5 303.532 1200.75 301.493C1201.15 301.286 1201.56 300.88 1201.76 300.47C1203.19 300.88 1204.21 301.286 1205.42 301.899C1207.02 302.9 1207.25 303.509 1207.84 305.075L1207.87 305.164C1207.66 310.065 1207.05 311.697 1205.42 314.759L1203.29 315.064L1201.15 315.368C1201.15 315.165 1200.94 314.962 1200.75 314.759C1199.32 312.92 1197.89 311.084 1196.67 309.245Z" fill="black"/>
<path d="M1117.66 319.043C1086.71 328.228 1088.55 299.041 1083.05 275.364C1081.42 267.608 1075.72 264.133 1074.9 255.155C1075.72 254.338 1076.53 253.725 1077.14 253.112C1086.51 254.542 1110.13 279.855 1117.66 299.857C1120.11 306.183 1120.92 311.9 1119.29 316.188C1118.68 317.001 1118.28 317.821 1117.66 318.84V319.043Z" fill="black"/>
<path d="M1117.66 388.855L1116.96 388.656C1109.26 386.474 1101.55 384.292 1094.04 381.916C1081.42 377.835 1069.41 371.911 1052.71 372.321V377.222C1065.54 382.935 1078.77 388.855 1091.81 394.772C1100.19 397.119 1108.38 399.274 1116.57 401.427L1117.66 401.715C1120.52 402.328 1123.16 403.144 1125.81 403.757C1150.04 412.736 1168.57 425.801 1187.71 439.68C1190.54 442.106 1195.16 445.535 1200.59 449.567L1200.75 449.681C1217.24 462.135 1241.67 478.669 1256.33 476.424C1261.83 473.155 1267.33 469.684 1273.23 466.216C1290.54 455.602 1309.88 441.516 1330.45 435.189V431.515C1319.45 427.637 1303.17 435.189 1294.21 437.025C1278.93 440.09 1263.87 435.189 1251.44 432.944C1243.91 432.737 1236.38 432.537 1229.25 432.331C1218.66 430.089 1209.5 426.004 1200.75 421.311C1189.75 415.391 1179.36 408.654 1167.96 403.757C1151.26 398.853 1134.36 393.956 1117.66 388.855Z" fill="black"/>
<path d="M1117.66 376.402C1117.26 376.199 1116.85 375.792 1116.45 375.179C1116.24 374.566 1103.62 340.888 1103.62 340.681C1104.02 339.865 1104.84 339.252 1105.65 338.639C1108.91 338.846 1113.39 341.701 1117.66 345.579C1126.22 353.748 1134.16 366.811 1131.51 373.75C1130.9 374.566 1130.29 375.586 1129.88 376.402C1127.23 377.421 1125 378.647 1122.55 377.835C1120.52 377.421 1118.89 377.222 1117.66 376.402Z" fill="black"/>
<path d="M1200.75 156.768C1190.15 165.75 1176.72 171.054 1154.52 167.379H1134.56C1135.18 166.973 1135.79 166.769 1136.2 166.566C1145.97 159.627 1155.33 152.48 1165.31 145.541C1176.92 136.559 1188.73 127.577 1200.75 118.599C1201.35 117.986 1201.97 117.576 1202.58 116.963C1225.38 104.716 1248.39 92.4698 1270.99 80.2232C1281.38 73.8932 1286.67 64.3019 1296.24 57.7652C1308.05 57.5655 1315.99 63.0758 1319.25 71.4446C1312.33 92.2631 1295.23 105.939 1280.15 118.392C1275.27 122.067 1264.07 129.007 1265.09 135.946C1267.33 144.112 1278.53 149.622 1284.03 155.132C1283.82 160.236 1282.19 160.236 1280.15 163.298C1261.83 168.605 1244.73 177.177 1229.86 184.936C1229.45 184.323 1228.84 183.71 1228.23 182.894C1235.56 174.935 1250.43 170.241 1254.3 159.217C1257.55 149.216 1248.8 140.644 1254.91 131.252C1263.25 118.799 1281.79 109.001 1284.03 91.8568C1282.6 90.2244 1280.97 88.5885 1279.14 86.956C1278.32 87.3659 1277.31 87.9754 1276.49 88.3888C1260 95.1216 1229.25 123.496 1218.05 137.375L1217.78 137.727C1212.38 144.749 1207.15 151.545 1200.75 156.768Z" fill="black"/>
<path fill-rule="evenodd" clip-rule="evenodd" d="M1730.16 333.945C1725.68 337.62 1721 341.294 1716.52 344.762C1708.37 352.725 1701.86 362.113 1692.49 369.056H1682.51C1679.87 363.745 1678.24 358.032 1678.04 352.928V347.418C1678.85 333.539 1686.18 320.676 1696.56 314.146C1693.51 325.166 1684.15 335.374 1686.38 348.847C1687.61 349.866 1688.62 351.092 1689.84 352.112C1703.69 349.663 1717.54 332.109 1727.92 324.35C1728.74 323.944 1729.55 323.331 1730.16 322.718C1754.39 304.555 1779.85 288.22 1806.52 272.708C1811.21 270.26 1816.7 268.627 1822.2 266.995L1822.49 266.907C1831.97 264.074 1841.59 261.199 1845.82 253.522C1846.22 252.912 1846.43 252.309 1846.63 251.703L1846.64 251.683C1846.64 249.844 1846.43 248.008 1845.82 245.763C1844.19 237.398 1840.32 228.006 1835.03 225.151C1831.97 223.515 1827.09 221.27 1822.2 219.227C1817.31 216.985 1812.43 215.146 1809.37 214.33C1797.36 227.19 1785.35 240.05 1773.33 253.112C1771.88 252.751 1770.43 252.548 1769.13 252.364L1768.65 252.296V251.683C1779.44 234.336 1790.23 217.189 1801.43 200.041C1799.8 197.183 1798.38 194.527 1797.15 191.879C1795.12 190.856 1793.08 190.04 1791.05 189.017C1785.14 190.653 1779.24 192.286 1773.33 193.918C1771.5 192.692 1769.66 191.466 1767.83 190.446C1764.37 177.384 1766 157.994 1764.58 148.196C1762.54 134.927 1753.78 121.661 1748.9 110.227C1746.04 103.697 1736.68 88.3888 1741.36 84.3042C1763.96 92.8762 1775.37 130.639 1784.33 153.093C1789.21 165.543 1789.01 183.304 1805.3 184.936C1807.54 182.081 1817.52 164.731 1822.2 148.603C1825.25 138.395 1826.27 128.803 1822.2 123.29C1822.2 123.088 1822 122.886 1821.6 122.483L1821.59 122.473C1818.33 117.576 1809.17 113.901 1810.59 108.801C1816.09 109.614 1818.54 110.84 1822.2 109.614C1823.02 109.414 1823.63 109.207 1824.24 108.801C1830.35 113.085 1831.16 119.618 1841.14 120.435C1842.76 119.822 1844.4 119.005 1845.82 118.392C1849.89 116.557 1853.76 114.718 1857.84 112.882C1858.65 112.675 1859.46 112.269 1860.28 111.863C1868.83 107.981 1877.18 104.307 1885.73 100.429C1894.89 96.141 1904.26 92.06 1913.42 87.7757C1914.03 87.5691 1914.44 87.3659 1915.05 87.1627C1921.57 84.101 1928.29 81.2426 1934.8 78.1809C1941.73 77.7711 1948.44 77.158 1955.16 76.7517C1968.81 73.69 1982.45 70.4252 1995.89 67.3635C1997.11 67.973 1998.13 68.5861 1999.35 69.4058C2009.53 122.27 1978.79 124.109 1957.2 151.051C1947.02 164.317 1936.84 177.79 1926.66 191.059C1925.03 193.508 1920.14 200.651 1915.05 208.613C1914.44 209.429 1914.03 210.042 1913.42 210.859C1906.91 221.883 1901.21 233.723 1905.69 236.785C1907.93 237.597 1910.78 237.398 1913.42 236.984C1914.03 236.984 1914.65 236.785 1915.05 236.785C1918.51 235.965 1921.97 234.536 1924.62 233.923H1937.66C1953.74 230.251 1976.55 221.476 1996.71 226.577C1999.76 230.661 2002 232.497 2002 240.049C1988.56 261.891 1960.46 282.303 1930.73 287.61C1925.23 288.63 1920.14 288.833 1915.05 288.833H1913.42C1903.85 289.04 1894.89 288.22 1885.73 288.833C1881.66 289.239 1877.38 289.852 1873.11 290.875C1869.04 292.101 1864.76 294.956 1860.28 297.408C1859.46 297.818 1858.65 298.225 1857.84 298.631C1854.17 300.673 1850.1 302.306 1845.82 302.306C1845.01 302.306 1844.19 302.102 1843.17 301.899V299.041C1844.19 298.631 1845.01 298.018 1845.82 297.611C1849.89 295.37 1853.76 293.121 1857.84 291.082C1858.65 290.875 1859.46 290.469 1860.28 290.059C1868.42 286.178 1876.97 282.916 1885.73 279.855C1894.89 276.586 1904.06 273.731 1913.42 270.869C1914.03 270.869 1914.44 270.67 1915.05 270.463C1919.13 269.24 1923.4 268.014 1927.47 266.585C1943.15 261.684 1963.72 257.81 1970.85 244.134C1970.24 240.659 1969.62 240.253 1968.2 238.007C1951.09 235.356 1931.96 238.823 1915.06 241.884L1915.05 241.885C1914.44 242.092 1914.03 242.092 1913.42 242.092C1910.78 242.498 1908.13 243.111 1905.69 243.521C1901.5 243.716 1897.32 243.919 1893.13 244.121L1892.86 244.134C1889.8 245.97 1887.77 248.621 1885.73 251.683C1883.08 255.561 1880.43 259.849 1875.14 261.891C1870.3 263.914 1865.46 263.331 1860.42 262.724L1860.28 262.707C1859.46 262.504 1858.65 262.504 1857.84 262.297C1854.78 261.891 1851.73 261.891 1848.67 262.504C1847.86 263.114 1846.84 263.523 1845.82 263.933C1838.08 267.401 1830.14 271.076 1822.2 274.344C1817.11 276.793 1811.82 279.242 1806.52 281.487C1801.63 282.916 1796.13 284.549 1791.05 286.178C1770.68 302.102 1750.53 318.024 1730.16 333.945ZM1824.24 196.57C1825.25 182.691 1836.04 175.138 1845.82 167.179C1850.5 163.708 1854.78 160.033 1857.84 155.745C1858.85 154.519 1859.67 153.297 1860.28 151.871L1860.29 151.854C1861.1 150.02 1861.91 148.19 1862.32 146.154C1863.33 141.456 1862.11 138.395 1860.28 135.54C1859.67 134.52 1858.85 133.497 1857.84 132.271C1855.39 129.413 1853.15 126.761 1852.74 122.473C1854.37 121.454 1856 120.638 1857.84 119.822C1858.65 119.618 1859.46 119.209 1860.28 118.799C1861.09 118.392 1861.7 117.986 1862.32 117.576C1875.14 117.779 1879.42 127.371 1883.9 135.946C1884.71 137.169 1885.12 138.395 1885.73 139.418C1894.08 156.971 1893.06 168.402 1885.73 178.2C1881.25 184.53 1874.33 190.04 1865.57 195.96C1863.94 197.183 1862.11 198.409 1860.28 199.428C1859.46 200.041 1858.65 200.451 1857.84 200.857C1854.17 203.103 1849.89 205.145 1845.82 206.165C1837.68 208.207 1829.74 206.574 1824.24 196.57ZM1844.6 223.109C1844.8 221.27 1845.21 219.434 1845.82 217.595C1847.86 212.901 1852.34 209.023 1857.84 205.552C1858.63 205.154 1859.43 204.753 1860.23 204.351L1860.28 204.325C1868.01 200.041 1877.18 196.367 1885.73 192.286C1896.73 186.978 1906.5 181.261 1909.14 172.689C1913.83 158.194 1897.34 142.479 1885.73 128.803C1880.64 122.883 1876.36 117.373 1875.14 112.269C1877.99 109.207 1881.66 106.552 1885.73 104.103C1893.67 99.2027 1903.45 95.1216 1913.42 91.8568C1914.03 91.8568 1914.44 91.6501 1915.05 91.4504C1925.84 88.1821 1937.04 85.7335 1946.41 83.6912C1957.81 81.2426 1965.55 83.488 1973.49 79.6101H1978.38C1979.6 81.2387 1981.02 83.0694 1982.44 84.9006L1982.45 84.9138C1981.63 91.8568 1960.87 118.186 1955.98 126.558C1942.75 148.603 1930.12 173.916 1915.05 196.98C1914.65 197.796 1914.03 198.612 1913.42 199.225C1905.28 211.878 1896.12 223.718 1885.73 233.723C1880.03 239.027 1874.12 244.134 1867.61 248.215C1864.96 248.215 1862.52 247.395 1860.28 246.173C1859.46 245.763 1858.65 245.153 1857.84 244.54C1852.13 240.253 1848.47 233.11 1845.82 226.374L1845.8 226.324C1845.4 225.318 1845 224.312 1844.6 223.109Z" fill="black"/>
<path d="M1730.16 225.351C1728.13 223.718 1726.29 221.883 1725.28 219.637C1725.07 213.51 1724.87 207.387 1724.46 201.264C1719.78 187.385 1714.89 173.709 1710.21 159.83H1712.25C1717.94 164.317 1724.26 170.854 1730.16 178.2C1737.7 187.182 1744.62 197.183 1748.28 205.348C1752.36 214.33 1749.51 229.435 1739.33 230.661C1736.68 229.435 1733.22 227.6 1730.16 225.351Z" fill="black"/>
<path d="M1845.82 98.7963C1841.14 101.245 1836.46 102.877 1833.81 101.245H1835.03L1835.96 100.094C1839.14 96.1565 1842.48 92.0328 1845.82 87.5691C1850.71 81.6524 1855.59 75.3224 1860.28 68.5861C1869.65 55.3166 1877.59 40.6213 1879.83 24.4933C1881.25 13.8826 1869.65 7.96242 1870.46 0C1874.94 2.44863 1880.23 5.51029 1885.73 8.9853C1897.54 16.5344 1910.37 26.5356 1915.05 37.9695C1915.67 39.6019 1916.27 41.2343 1916.48 42.8667C1917.7 47.9672 1916.89 52.4616 1915.05 56.3394C1910.37 66.1374 1897.95 73.2802 1885.73 78.7904C1875.95 83.2848 1866.18 86.7529 1860.28 90.0177L1860.27 90.023C1860.07 90.2279 1859.87 90.4275 1859.46 90.4275C1856.82 92.06 1851.31 95.9378 1845.82 98.7963Z" fill="black"/>
<path d="M1822.2 330.68C1805.3 336.191 1784.94 339.662 1771.3 335.171C1785.35 355.99 1806.32 340.888 1822.2 335.987C1829.33 333.945 1835.23 333.742 1839.1 339.252C1837.88 348.234 1832.18 350.479 1828.92 356.809C1828.1 357.622 1827.09 358.438 1826.27 359.458C1827.09 360.071 1828.1 360.89 1828.92 361.5C1834.62 357.622 1840.32 353.541 1845.82 349.46C1850.71 345.989 1855.59 342.314 1860.28 338.639L1861.16 337.918C1865.32 334.507 1869.3 331.242 1873.11 327.619V324.35C1872.9 323.737 1872.7 323.331 1872.49 322.924C1869.03 322.226 1865.56 321.531 1862.09 320.836L1860.28 320.472C1856.41 319.656 1852.54 319.043 1848.67 318.227C1847.86 319.043 1847.04 319.656 1845.82 320.269C1840.12 323.737 1831.77 327.619 1822.2 330.68Z" fill="black"/>
<path d="M1718.96 485.405C1722.02 489.077 1725.89 492.138 1730.16 494.59C1741.77 501.53 1757.25 505.205 1769.26 510.512C1786.36 520.72 1803.67 530.924 1820.77 541.128C1821.37 541.531 1821.78 541.734 1822.18 541.934L1822.2 541.944C1829.74 545.213 1839.1 547.662 1845.82 544.6C1848.47 543.374 1850.71 541.538 1852.13 538.477C1865.81 512.661 1855.05 461.142 1849.48 434.517L1849.28 433.557V417.23C1848.87 414.575 1847.45 411.107 1845.82 407.632L1845.57 407.007C1842.57 399.398 1839.15 390.725 1841.14 384.568C1842.15 383.138 1843.78 381.916 1845.82 380.896C1849.69 379.057 1854.98 378.241 1860.28 378.034C1863.54 377.835 1866.79 377.835 1869.65 377.835C1870.66 379.67 1871.48 381.506 1872.49 383.345C1870.26 387.629 1866.39 391.101 1861.5 392.73C1861.3 393.549 1860.89 394.162 1860.28 394.772V396.205C1867.2 399.673 1874.33 390.281 1879.83 388.649C1881.86 388.242 1883.69 388.039 1885.73 388.039C1893.87 388.039 1902.23 391.101 1909.76 388.649C1911.59 387.426 1913.22 385.997 1915.05 384.771L1915.15 384.703C1918.17 382.48 1921.19 380.259 1924.01 377.835C1929.71 374.36 1939.08 373.75 1944.37 371.098L1944.43 370.763C1944.62 369.65 1944.8 368.553 1944.98 367.623C1941.12 360.277 1927.27 352.725 1915.05 349.05C1910.98 347.824 1907.11 347.011 1903.65 346.805C1896.73 350.686 1891.43 354.97 1885.73 359.051C1881.05 362.519 1875.95 365.788 1869.65 368.236L1869.64 368.237C1866.59 368.85 1863.54 369.463 1860.28 370.279C1855.61 371.094 1850.75 372.108 1845.89 373.123L1845.82 373.137C1841.14 373.953 1836.46 374.973 1831.77 375.792C1828.51 378.034 1825.46 380.283 1822.2 382.525C1820.98 383.545 1819.55 384.568 1818.33 385.384C1794.3 394.569 1770.68 403.96 1746.86 413.145C1740.14 414.981 1735.25 410.287 1730.16 407.022C1728.33 405.796 1726.5 404.777 1724.46 404.37C1724.06 405.183 1723.45 406.206 1723.04 407.022C1725.48 410.9 1727.72 415.797 1730.16 420.491C1733.42 426.004 1737.08 431.108 1742.18 432.944C1752.56 437.025 1762.54 428.25 1768.65 424.778C1783.51 416.617 1804.28 400.489 1822.2 393.956C1825.05 392.936 1827.9 392.12 1830.35 391.507C1832.35 392.708 1834.35 394.113 1836.35 395.517L1836.46 395.592C1841.54 422.94 1837.68 499.281 1829.74 510.512C1828.31 510.918 1825.66 511.121 1822.2 510.918C1814.66 510.918 1803.87 509.899 1797.77 508.469C1792.06 506.017 1786.36 503.365 1780.86 500.917C1778.08 501.716 1775.48 502.316 1772.89 502.916L1772.72 502.956C1766.2 501.12 1759.89 499.281 1753.58 497.652C1746.25 494.384 1738.51 488.873 1730.16 485.405C1727.11 484.179 1723.85 483.16 1720.39 482.547H1719.78C1719.37 483.566 1719.17 484.386 1718.96 485.405Z" fill="black"/>
<path d="M1730.16 280.468C1720.8 291.488 1707.76 303.941 1704.1 303.941V303.122C1713.48 297.325 1722.27 284.469 1729.71 273.583L1730.16 272.912C1732.61 269.444 1734.64 266.175 1736.68 263.32C1737.62 263.695 1738.72 264.069 1739.85 264.449L1740.14 264.546V265.359C1739.73 268.421 1735.66 274.138 1730.16 280.468Z" fill="black"/>
</svg>
