<svg width="316" height="179" viewBox="0 0 316 179" fill="none" xmlns="http://www.w3.org/2000/svg">
<g clip-path="url(#clip0_2376_906)">
<path d="M96.6189 139.571C96.6189 137.643 96.6189 135.822 96.6189 133.925C94.1495 133.925 91.7099 133.925 89.2251 133.925C89.2251 128.833 89.2251 123.813 89.2251 118.74C91.674 118.74 94.0983 118.74 96.5974 118.74C96.5974 117.978 96.5974 117.267 96.5974 116.516C97.6558 116.516 98.6364 116.516 99.6939 116.516C99.6939 117.209 99.6939 117.923 99.6939 118.703C103.2 118.703 106.63 118.703 110.097 118.703C110.097 123.792 110.097 128.812 110.097 133.882C106.7 133.882 103.331 133.882 99.9111 133.882C99.9111 134.859 99.9111 135.79 99.9111 136.784C101.37 136.784 102.853 136.953 104.273 136.729C105.313 136.564 106.264 135.883 107.257 135.433C109.037 134.63 110.816 133.832 112.662 133.003C112.662 133.98 112.662 134.888 112.662 135.862C111.021 136.602 109.342 137.356 107.66 138.113C107.559 138.159 107.449 138.191 107.354 138.249C105.379 139.45 103.221 139.745 100.931 139.586C99.5309 139.49 98.1098 139.571 96.6189 139.571ZM99.8957 131.077C102.297 131.077 104.645 131.077 106.974 131.077C106.974 129.836 106.974 128.644 106.974 127.464C104.588 127.464 102.259 127.464 99.8957 127.464C99.8957 128.676 99.8957 129.853 99.8957 131.077ZM106.974 124.636C106.974 123.549 106.974 122.531 106.974 121.527C104.588 121.527 102.259 121.527 99.908 121.527C99.908 122.577 99.908 123.595 99.908 124.636C102.279 124.636 104.609 124.636 106.974 124.636ZM96.5923 127.478C95.1352 127.478 93.7335 127.478 92.3513 127.478C92.3513 128.719 92.3513 129.911 92.3513 131.092C93.7929 131.092 95.1772 131.092 96.5923 131.092C96.5923 129.879 96.5923 128.702 96.5923 127.478ZM96.5769 124.63C96.5769 123.56 96.5769 122.545 96.5769 121.545C95.127 121.545 93.7274 121.545 92.3339 121.545C92.3339 122.598 92.3339 123.598 92.3339 124.63C93.754 124.63 95.1352 124.63 96.5769 124.63Z" fill="#1A5AA9"/>
<path d="M62.4552 116.493C63.7237 116.493 64.9093 116.493 66.146 116.493C66.0364 117.238 65.9288 117.955 65.8161 118.717C71.6524 118.717 77.4345 118.717 83.2739 118.717C83.2739 119.637 83.2739 120.524 83.2739 121.464C77.3392 121.464 71.4024 121.464 65.3703 121.464C65.1767 122.603 64.9871 123.705 64.7883 124.889C70.9659 124.889 77.0953 124.889 83.276 124.889C83.276 128.139 83.276 131.315 83.276 134.601C79.4161 136.315 75.4907 138.058 71.4741 139.844C71.4741 138.643 71.4741 137.602 71.4741 136.486C73.2898 135.674 75.129 134.85 76.9652 134.027C76.959 133.992 76.9498 133.96 76.9447 133.925C71.2661 133.925 65.5876 133.925 59.8608 133.925C59.8608 132.985 59.8608 132.098 59.8608 131.135C66.6306 131.135 73.3933 131.135 80.1887 131.135C80.1887 129.969 80.1887 128.879 80.1887 127.716C73.7355 127.716 67.2864 127.716 60.6693 127.716C61.2666 123.914 61.8609 120.211 62.4552 116.493Z" fill="#1A5AA9"/>
<path d="M188.734 126.617C188.734 129.662 188.734 132.585 188.734 135.256C187.198 136.811 185.789 138.24 184.328 139.722C184.328 138.481 184.328 137.304 184.328 135.926C184.717 135.622 185.224 135.224 185.629 134.908C185.629 132.985 185.629 131.251 185.629 129.462C184.936 129.462 184.253 129.462 183.493 129.462C183.493 132.8 183.493 136.152 183.493 139.537C182.434 139.537 181.454 139.537 180.393 139.537C180.393 136.187 180.393 132.838 180.393 129.447C179.605 129.447 178.892 129.447 178.105 129.447C178.105 132.78 178.105 136.129 178.105 139.525C177.032 139.525 176.034 139.525 175 139.525C175 135.253 175 130.996 175 126.66C176.759 126.66 178.524 126.66 180.328 126.66C180.328 125.935 180.328 125.283 180.328 124.558C178.584 124.558 176.818 124.558 175.009 124.558C175.009 123.598 175.009 122.714 175.009 121.774C176.777 121.774 178.524 121.774 180.321 121.774C180.321 121.322 180.321 120.918 180.321 120.46C178.571 120.46 176.821 120.46 175.018 120.46C175.018 119.126 175.018 117.844 175.018 116.519C176.008 116.519 177.006 116.519 178.055 116.519C178.055 116.884 178.055 117.23 178.055 117.618C178.833 117.618 179.561 117.618 180.34 117.618C180.354 117.267 180.373 116.925 180.39 116.528C181.388 116.528 182.39 116.528 183.448 116.528C183.466 116.876 183.484 117.238 183.504 117.647C185.24 117.647 186.943 117.647 188.699 117.647C188.699 118.584 188.699 119.471 188.699 120.408C186.993 120.408 185.29 120.408 183.531 120.408C183.531 120.86 183.531 121.264 183.531 121.742C185.24 121.742 186.96 121.742 188.713 121.742C188.713 122.687 188.713 123.557 188.713 124.506C186.987 124.506 185.266 124.506 183.513 124.506C183.513 125.234 183.513 125.883 183.513 126.614C185.231 126.617 186.948 126.617 188.734 126.617Z" fill="#1A5AA9"/>
<path d="M131.554 121.858C132.534 121.409 133.471 120.982 134.406 120.553C134.395 120.512 134.383 120.469 134.371 120.428C129.587 120.428 124.806 120.428 119.986 120.428C119.986 119.5 119.986 118.633 119.986 117.714C126.218 117.714 132.439 117.714 138.701 117.714C138.701 119.01 138.701 120.298 138.701 121.667C137.411 122.258 136.08 122.87 134.722 123.494C134.722 123.943 134.722 124.393 134.722 124.918C136.763 124.918 138.798 124.918 140.867 124.918C140.867 125.86 140.867 126.73 140.867 127.675C138.826 127.675 136.79 127.675 134.713 127.675C134.713 130.074 134.713 132.397 134.713 134.804C133.839 135.189 132.971 135.575 132.104 135.958C129.497 137.103 126.895 138.258 124.28 139.389C123.936 139.537 123.54 139.568 123.094 139.67C123.094 138.62 123.094 137.707 123.094 136.712C125.872 135.459 128.701 134.186 131.554 132.901C131.554 131.202 131.554 129.491 131.554 127.71C126.842 127.71 122.147 127.71 117.419 127.71C117.419 126.768 117.419 125.898 117.419 124.952C122.108 124.952 126.8 124.952 131.554 124.952C131.554 123.876 131.554 122.876 131.554 121.858Z" fill="#1A5AA9"/>
<path d="M213.162 136.825C213.57 134.261 213.956 131.811 214.354 129.285C213.748 129.285 213.237 129.285 212.685 129.285C213.154 126.321 213.614 123.421 214.083 120.443C211.553 120.443 209.107 120.443 206.625 120.443C206.625 119.509 206.625 118.639 206.625 117.717C212.524 117.717 218.431 117.717 224.383 117.717C224.383 118.598 224.383 119.483 224.383 120.42C222.211 120.42 220.056 120.42 217.804 120.42C217.474 122.441 217.15 124.427 216.815 126.498C217.355 126.498 217.816 126.498 218.375 126.498C217.819 129.949 217.278 133.319 216.726 136.761C220.22 136.761 223.694 136.761 227.215 136.761C227.215 137.715 227.215 138.603 227.215 139.531C219.418 139.531 211.617 139.531 203.782 139.531C203.782 138.64 203.782 137.77 203.782 136.828C206.902 136.825 210.019 136.825 213.162 136.825Z" fill="#1A5AA9"/>
<path d="M21.79 139.673C20.7653 139.673 19.7786 139.673 18.7201 139.673C18.7201 132.82 18.7201 125.999 18.7201 119.15C17.9332 119.15 17.2231 119.15 16.4178 119.15C16.4178 119.39 16.4178 119.622 16.4178 119.854C16.4178 124.14 16.4321 128.427 16.3973 132.713C16.3942 133.252 16.2364 133.844 15.9751 134.32C15.0007 136.086 13.9545 137.814 12.9442 139.54C11.8858 139.54 10.9052 139.54 9.80371 139.54C9.91027 139.223 9.95433 138.951 10.0824 138.722C11.0517 137.002 12.0497 135.297 13.0067 133.571C13.1789 133.261 13.2916 132.878 13.2916 132.527C13.31 127.449 13.3039 122.371 13.3039 117.293C13.3039 117.056 13.3039 116.815 13.3039 116.528C16.1473 116.528 18.9466 116.528 21.793 116.528C21.793 122.18 21.793 127.821 21.793 133.461C21.8412 133.479 21.8853 133.496 21.9324 133.51C23.1661 131.341 24.4018 129.175 25.6354 127.006C25.7061 127.011 25.7748 127.017 25.8465 127.023C25.9029 127.226 26.0012 127.426 26.0033 127.629C26.0217 129.036 26.0279 130.442 26.0187 131.849C26.0187 132.058 25.9592 132.287 25.8578 132.469C24.5155 134.865 23.1599 137.251 21.79 139.673Z" fill="#1A5AA9"/>
<path d="M284.832 129.265C284.832 130.242 284.832 131.094 284.832 132.028C281.43 132.028 278.045 132.028 274.598 132.028C274.598 133.438 274.598 134.769 274.598 136.114C271.841 137.347 269.131 138.562 266.362 139.8C266.362 138.826 266.362 137.933 266.362 136.964C268.023 136.222 269.722 135.465 271.437 134.702C271.437 133.829 271.437 132.98 271.437 132.06C268.079 132.06 264.736 132.06 261.364 132.06C261.364 131.118 261.364 130.248 261.364 129.299C264.712 129.299 268.053 129.299 271.44 129.299C271.44 128.574 271.44 127.922 271.44 127.217C272.768 126.623 274.082 126.034 275.392 125.445C275.389 125.41 275.383 125.376 275.38 125.341C272.254 125.341 269.127 125.341 265.963 125.341C265.963 124.395 265.963 123.525 265.963 122.603C270.694 122.603 275.43 122.603 280.214 122.603C280.214 123.621 280.214 124.645 280.214 125.747C278.367 126.605 276.473 127.481 274.59 128.357C274.59 128.664 274.59 128.928 274.59 129.265C277.995 129.265 281.382 129.265 284.832 129.265Z" fill="#1A5AA9"/>
<path d="M54.4917 121.481C53.5254 121.481 52.59 121.481 51.6063 121.481C51.6063 122.818 51.6063 124.103 51.6063 125.524C51.9209 125.002 52.1565 124.549 52.4537 124.138C52.7211 123.766 52.7508 123.166 53.4486 123.05C53.4486 124.541 53.4988 125.967 53.4189 127.388C53.3953 127.826 53.0182 128.25 52.7826 128.67C52.5069 129.169 52.2129 129.656 51.8942 130.201C52.2692 130.868 52.6432 131.533 53.0183 132.197C53.5255 133.096 54.0398 133.992 54.545 134.894C54.6167 135.021 54.6823 135.172 54.6823 135.314C54.6843 136.721 54.673 138.127 54.6608 139.534C54.6608 139.612 54.628 139.69 54.5573 139.989C53.1248 137.475 51.7846 135.126 50.4177 132.73C49.0365 135.1 47.684 137.417 46.3325 139.734C46.2751 139.728 46.2157 139.719 46.1593 139.714C46.1122 139.499 46.0261 139.284 46.023 139.07C46.0107 137.884 46.0056 136.695 46.0292 135.509C46.0353 135.262 46.1388 135.001 46.2607 134.781C46.8048 133.8 47.3274 132.809 47.9422 131.869C48.3377 131.266 48.4688 130.66 48.4627 129.958C48.436 127.168 48.4504 124.378 48.4504 121.519C45.5271 121.519 42.6386 121.519 39.7051 121.519C39.7051 120.562 39.7051 119.674 39.7051 118.738C41.7503 118.738 43.7678 118.738 45.8591 118.738C45.8591 117.934 45.8591 117.177 45.8591 116.386C46.9175 116.386 47.8981 116.386 48.9586 116.386C48.9586 117.122 48.9586 117.879 48.9586 118.68C49.4464 118.68 49.8562 118.68 50.3255 118.68C50.3255 117.969 50.3255 117.273 50.3255 116.531C51.3778 116.531 52.3758 116.531 53.4281 116.531C53.4281 117.235 53.4281 117.931 53.4281 118.688C53.8021 118.712 54.1228 118.732 54.4917 118.755C54.4917 119.657 54.4917 120.544 54.4917 121.481Z" fill="#1A5AA9"/>
<path d="M238.875 139.554C237.817 139.554 236.848 139.554 235.82 139.554C235.82 137.881 235.82 136.222 235.82 134.563C235.767 134.546 235.714 134.525 235.66 134.508C234.668 136.213 233.678 137.918 232.608 139.757C232.575 139.458 232.546 139.302 232.546 139.145C232.543 137.826 232.508 136.506 232.564 135.187C232.585 134.665 232.721 134.108 232.965 133.647C233.756 132.156 234.641 130.709 235.446 129.224C235.645 128.859 235.755 128.409 235.773 127.994C235.817 126.875 235.788 125.756 235.788 124.555C234.718 124.555 233.675 124.555 232.588 124.555C232.588 123.61 232.588 122.737 232.588 121.788C233.609 121.788 234.655 121.788 235.744 121.788C235.744 121.31 235.744 120.907 235.744 120.454C234.697 120.454 233.669 120.454 232.594 120.454C232.594 119.518 232.594 118.633 232.594 117.694C234.21 117.694 235.824 117.694 237.511 117.694C237.511 117.285 237.511 116.925 237.511 116.522C238.584 116.522 239.583 116.522 240.617 116.522C240.617 117.81 240.617 119.074 240.617 120.417C240.07 120.417 239.524 120.417 238.934 120.417C238.934 120.878 238.934 121.266 238.934 121.73C239.469 121.73 240.019 121.73 240.611 121.73C240.611 122.676 240.611 123.546 240.611 124.485C240.117 124.485 239.613 124.485 238.956 124.485C239.377 125.202 239.707 125.819 240.096 126.399C240.531 127.046 240.7 127.725 240.67 128.502C240.62 129.766 240.655 131.031 240.655 132.49C240.043 131.451 239.529 130.578 239.015 129.708C238.97 129.717 238.923 129.726 238.878 129.734C238.875 133.009 238.875 136.28 238.875 139.554Z" fill="#1A5AA9"/>
<path d="M297.101 133.215C295.845 133.783 294.555 134.369 293.247 134.96C293.247 136.48 293.247 137.974 293.247 139.516C292.214 139.516 291.214 139.516 290.171 139.516C290.171 132.261 290.171 124.996 290.171 117.699C292.478 117.699 294.766 117.699 297.104 117.699C297.101 122.856 297.101 128.012 297.101 133.215ZM293.265 120.466C293.265 124.355 293.265 128.183 293.265 132.098C293.559 131.965 293.791 131.86 294.008 131.765C294.008 127.983 294.008 124.239 294.008 120.469C293.753 120.466 293.535 120.466 293.265 120.466Z" fill="#1A5AA9"/>
<path d="M8.72165 116.528C8.72165 117.227 8.72165 117.876 8.72165 118.575C9.53009 118.575 10.2873 118.575 11.0927 118.575C11.0927 119.466 11.0927 120.307 11.0927 121.209C10.4 121.209 9.71145 121.209 8.85485 121.209C9.22065 121.783 9.53009 122.232 9.80367 122.702C10.3027 123.555 10.7843 124.419 11.2648 125.28C11.3273 125.39 11.3929 125.515 11.3929 125.637C11.4021 127.04 11.399 128.447 11.2474 129.978C11.0896 129.836 10.8816 129.723 10.7812 129.552C10.1213 128.421 9.48501 127.278 8.73087 126.15C8.73087 130.645 8.73087 135.143 8.73087 139.673C7.66114 139.673 6.68056 139.673 5.61289 139.673C5.61289 136.75 5.61289 133.827 5.61289 130.906C5.56883 130.897 5.52169 130.886 5.47661 130.877C4.36487 132.814 3.25416 134.752 2.14243 136.689C2.09529 136.671 2.04713 136.654 2 136.637C2 134.807 2 132.977 2 131.182C2.5738 130.196 3.14452 129.218 3.7091 128.241C3.94887 127.823 4.11588 127.348 4.4243 126.988C5.87519 125.289 5.64567 123.294 5.5596 121.261C4.38639 121.261 3.22444 121.261 2.00614 121.261C2.00614 120.37 2.00614 119.529 2.00614 118.61C3.17116 118.61 4.35052 118.61 5.57804 118.61C5.57804 117.888 5.57804 117.235 5.57804 116.531C6.62625 116.528 7.62528 116.528 8.72165 116.528Z" fill="#1A5AA9"/>
<path d="M307.032 129.955C306.215 129.955 305.52 129.955 304.756 129.955C304.756 132.002 304.756 134.035 304.756 136.103C301.99 137.341 299.264 138.562 296.486 139.806C296.486 138.817 296.486 137.918 296.486 136.973C298.183 136.216 299.88 135.456 301.577 134.699C301.577 133.107 301.577 131.556 301.577 129.955C300.426 129.955 299.309 129.955 298.144 129.955C298.144 129.021 298.144 128.134 298.144 127.208C303.277 127.208 308.402 127.208 313.585 127.208C313.585 128.078 313.585 128.963 313.585 129.929C312.46 129.929 311.326 129.929 310.158 129.929C310.158 132.24 310.158 134.473 310.158 136.781C311.293 136.781 312.426 136.781 313.599 136.781C313.599 137.727 313.599 138.597 313.599 139.519C311.445 139.519 309.276 139.519 307.029 139.519C307.032 136.358 307.032 133.185 307.032 129.955Z" fill="#1A5AA9"/>
<path d="M33.5757 118.746C33.5757 117.934 33.5757 117.256 33.5757 116.528C34.6536 116.528 35.6967 116.528 36.7961 116.528C36.7961 117.224 36.7961 117.92 36.7961 118.688C37.4888 118.688 38.1281 118.688 38.8085 118.688C38.8085 119.648 38.8085 120.536 38.8085 121.487C38.288 121.487 37.7828 121.487 37.1978 121.487C37.7091 122.377 38.1784 123.181 38.6333 123.993C38.7368 124.178 38.8413 124.393 38.8433 124.596C38.8618 126.13 38.8526 127.664 38.7163 129.244C38.1281 128.154 37.5359 127.061 36.9478 125.97C36.9098 125.982 36.8709 125.994 36.832 126.005C36.832 130.544 36.832 135.082 36.832 139.661C35.7356 139.661 34.6925 139.661 33.6054 139.661C33.6054 136.808 33.6054 133.977 33.6054 131.147C33.5634 131.129 33.5193 131.115 33.4773 131.098C32.7016 132.443 31.926 133.789 31.1473 135.134C31.1032 135.126 31.0581 135.117 31.0141 135.108C31.0141 133.716 31.0581 132.321 30.9987 130.932C30.9608 130.042 31.1329 129.253 31.6555 128.525C31.8573 128.241 31.9823 127.899 32.1934 127.623C33.5818 125.811 33.8759 123.769 33.4834 121.519C32.7437 121.519 31.926 121.519 31.0612 121.519C31.0612 120.573 31.0612 119.703 31.0612 118.746C31.8553 118.746 32.6719 118.746 33.5757 118.746Z" fill="#1A5AA9"/>
<path d="M242.726 126.524C246.91 126.524 251.026 126.524 255.197 126.524C255.197 127.423 255.197 128.308 255.197 129.27C253.664 129.27 252.125 129.27 250.556 129.27C250.556 130.082 250.556 130.822 250.556 131.634C251.417 131.634 252.279 131.634 253.183 131.634C253.183 132.591 253.183 133.478 253.183 134.415C252.312 134.415 251.462 134.415 250.568 134.415C250.568 135.218 250.568 135.972 250.568 136.776C252.368 136.776 254.16 136.776 256.006 136.776C256.006 137.707 256.006 138.594 256.006 139.528C251.331 139.528 246.639 139.528 241.909 139.528C241.909 138.64 241.909 137.756 241.909 136.819C243.724 136.819 245.52 136.819 247.359 136.819C247.359 136.016 247.359 135.262 247.359 134.456C246.556 134.456 245.754 134.456 244.896 134.456C244.896 133.522 244.896 132.635 244.896 131.675C245.698 131.675 246.514 131.675 247.37 131.675C247.37 130.863 247.37 130.126 247.37 129.314C245.843 129.314 244.304 129.314 242.72 129.314C242.726 128.351 242.726 127.467 242.726 126.524Z" fill="#1A5AA9"/>
<path d="M271.464 118.807C271.464 118.03 271.464 117.308 271.464 116.534C272.488 116.534 273.487 116.534 274.565 116.534C274.565 117.279 274.565 118.033 274.565 118.822C275.938 118.822 277.238 118.822 278.61 118.822C278.61 118.073 278.61 117.317 278.61 116.522C279.665 116.522 280.649 116.522 281.709 116.522C281.709 117.256 281.709 118.013 281.709 118.842C282.782 118.842 283.78 118.842 284.815 118.842C284.815 121.02 284.815 123.12 284.815 125.271C283.822 125.271 282.824 125.271 281.772 125.271C281.772 124.094 281.772 122.917 281.772 121.681C275.993 121.681 270.266 121.681 264.46 121.681C264.46 122.861 264.46 124.056 264.46 125.286C263.402 125.286 262.418 125.286 261.384 125.286C261.384 123.178 261.384 121.061 261.384 118.865C262.374 118.865 263.372 118.865 264.427 118.865C264.427 118.053 264.427 117.314 264.427 116.528C265.479 116.528 266.478 116.528 267.529 116.528C267.529 117.279 267.529 118.018 267.529 118.807C268.852 118.807 270.117 118.807 271.464 118.807Z" fill="#1A5AA9"/>
<path d="M152.155 129.543C152.509 129.543 152.815 129.543 153.163 129.543C153.163 130.433 153.163 131.277 153.163 132.168C152.83 132.168 152.521 132.168 152.155 132.168C152.155 132.927 152.155 133.644 152.155 134.314C150.188 136.172 148.278 137.976 146.227 139.916C146.227 138.548 146.227 137.396 146.227 136.193C147.13 135.326 148.075 134.415 148.996 133.531C148.996 133.119 148.996 132.768 148.996 132.347C148.084 132.347 147.176 132.347 146.222 132.347C146.222 131.39 146.222 130.503 146.222 129.566C147.124 129.566 148.019 129.566 148.964 129.566C148.964 126.518 148.964 123.523 148.964 120.451C148.064 120.451 147.154 120.451 146.212 120.451C146.212 119.509 146.212 118.636 146.212 117.693C147.119 117.693 148.028 117.693 148.982 117.693C149.006 117.264 149.026 116.905 149.048 116.513C150.066 116.513 151.05 116.513 152.108 116.513C152.108 116.879 152.108 117.238 152.108 117.638C152.488 117.656 152.797 117.67 153.156 117.688C153.156 118.578 153.156 119.465 153.156 120.399C152.842 120.422 152.515 120.446 152.161 120.472C152.155 123.482 152.155 126.463 152.155 129.543Z" fill="#1A5AA9"/>
<path d="M163.913 132.29C163.913 133.853 163.913 135.294 163.913 136.785C165.83 136.785 167.715 136.785 169.643 136.785C169.643 137.718 169.643 138.603 169.643 139.531C164.543 139.531 159.448 139.531 154.318 139.531C154.318 138.641 154.318 137.771 154.318 136.825C156.437 136.825 158.561 136.825 160.729 136.825C160.729 135.294 160.729 133.838 160.729 132.33C159.138 132.33 157.57 132.33 155.953 132.33C155.953 131.396 155.953 130.509 155.953 129.584C159.923 129.584 163.893 129.584 167.898 129.584C167.898 130.474 167.898 131.344 167.898 132.29C166.591 132.29 165.278 132.29 163.913 132.29Z" fill="#1A5AA9"/>
<path d="M241.921 117.697C246.642 117.697 251.314 117.697 256.023 117.697C256.023 119.959 256.023 122.189 256.023 124.477C251.347 124.477 246.657 124.477 241.921 124.477C241.921 122.244 241.921 119.999 241.921 117.697ZM252.918 121.728C252.918 121.267 252.918 120.878 252.918 120.478C250.261 120.478 247.644 120.478 245.029 120.478C245.029 120.921 245.029 121.325 245.029 121.728C247.679 121.728 250.28 121.728 252.918 121.728Z" fill="#1A5AA9"/>
<path d="M169.643 124.494C168.608 124.494 167.628 124.494 166.597 124.494C166.597 123.149 166.597 121.841 166.597 120.483C163.522 120.483 160.499 120.483 157.403 120.483C157.403 121.809 157.403 123.134 157.403 124.494C156.348 124.494 155.368 124.494 154.337 124.494C154.337 122.247 154.337 119.999 154.337 117.676C156.325 117.676 158.313 117.676 160.354 117.676C160.354 117.085 160.354 116.566 160.354 116C161.406 116 162.401 116 163.45 116C163.45 116.522 163.45 117.041 163.45 117.633C165.53 117.633 167.566 117.633 169.646 117.633C169.643 119.95 169.643 122.197 169.643 124.494Z" fill="#1A5AA9"/>
<path d="M304.331 118.88C304.331 118.024 304.331 117.285 304.331 116.513C305.362 116.513 306.342 116.513 307.401 116.513C307.401 117.264 307.401 118.018 307.401 118.848C309.51 118.848 311.542 118.848 313.608 118.848C313.608 121.023 313.608 123.122 313.608 125.271C312.609 125.271 311.614 125.271 310.541 125.271C310.541 124.076 310.541 122.882 310.541 121.658C307.415 121.658 304.364 121.658 301.234 121.658C301.234 122.853 301.234 124.047 301.234 125.28C300.162 125.28 299.164 125.28 298.133 125.28C298.133 123.151 298.133 121.052 298.133 118.88C300.165 118.88 302.198 118.88 304.331 118.88Z" fill="#1A5AA9"/>
<path d="M195.376 116.513C196.451 116.513 197.432 116.513 198.445 116.513C198.445 122.476 198.445 128.403 198.445 134.163C196.57 136.071 194.772 137.901 192.856 139.847C192.856 138.437 192.856 137.205 192.856 135.926C193.643 135.131 194.469 134.296 195.372 133.383C195.376 127.849 195.376 122.206 195.376 116.513Z" fill="#1A5AA9"/>
<path d="M40.745 127.693C40.3946 127.693 40.1487 127.693 39.8516 127.693C39.8516 126.785 39.8516 125.895 39.8516 124.958C40.121 124.938 40.4008 124.918 40.7276 124.891C40.7276 124.439 40.7276 124.004 40.7276 123.523C41.7738 123.523 42.7718 123.523 43.8241 123.523C43.8241 123.943 43.8241 124.375 43.8241 124.86C44.026 124.877 44.1807 124.891 44.3917 124.912C44.3917 124.425 44.3917 123.99 44.3917 123.514C45.4379 123.514 46.4359 123.514 47.4882 123.514C47.4882 123.958 47.4882 124.387 47.4882 124.851C47.6901 124.9 47.8499 124.938 48.0262 124.981C48.0262 125.86 48.0262 126.713 48.0262 127.609C47.8796 127.655 47.7229 127.704 47.5149 127.768C47.5149 128.763 47.5149 129.766 47.5149 130.816C46.4656 130.816 45.4707 130.816 44.4184 130.816C44.4184 129.801 44.4184 128.798 44.4184 127.751C44.2278 127.731 44.0854 127.716 43.8569 127.693C43.8569 128.621 43.8948 129.517 43.8415 130.41C43.8118 130.865 43.6991 131.356 43.4819 131.756C42.4152 133.722 41.3045 135.662 40.2051 137.611C40.1661 137.681 40.1067 137.739 39.9376 137.953C39.9376 136.831 39.9376 135.88 39.9376 134.928C39.9376 134.27 39.9223 133.609 39.9376 132.951C39.9428 132.695 39.9315 132.382 40.0708 132.197C41.0965 130.819 40.6559 129.262 40.745 127.693Z" fill="#1A5AA9"/>
<path d="M193.97 133.339C192.945 133.339 191.965 133.339 190.948 133.339C190.948 128.514 190.948 123.717 190.948 118.888C191.959 118.888 192.939 118.888 193.97 118.888C193.97 123.685 193.97 128.482 193.97 133.339Z" fill="#1A5AA9"/>
<path d="M165.506 121.412C165.506 122.618 165.506 123.775 165.506 124.964C165.349 125.153 165.17 125.37 164.903 125.695C166.556 125.695 168.089 125.695 169.654 125.695C169.654 126.643 169.654 127.513 169.654 128.43C169.524 128.447 169.376 128.485 169.227 128.485C167.111 128.488 164.995 128.496 162.879 128.476C162.612 128.473 162.261 128.395 162.089 128.218C161.554 127.667 161.09 127.055 160.55 126.408C161.177 125.883 161.774 125.387 162.252 124.987C162.252 123.647 162.252 122.554 162.252 121.409C163.334 121.412 164.374 121.412 165.506 121.412Z" fill="#1A5AA9"/>
<path d="M158.223 124.161C158.223 123.363 158.223 122.403 158.223 121.4C159.24 121.4 160.22 121.4 161.257 121.4C161.257 122.508 161.257 123.636 161.257 124.662C160.027 125.93 158.835 127.154 157.695 128.325C156.42 128.325 155.258 128.325 154.054 128.325C154.054 127.429 154.054 126.559 154.054 125.631C154.969 125.631 155.903 125.631 156.833 125.631C157.282 125.158 157.703 124.712 158.223 124.161Z" fill="#1A5AA9"/>
<path d="M309.692 122.598C309.692 123.511 309.692 124.381 309.692 125.286C307.137 125.286 304.608 125.286 302.049 125.286C302.049 124.387 302.049 123.517 302.049 122.598C304.581 122.598 307.107 122.598 309.692 122.598Z" fill="#1A5AA9"/>
<path d="M126.381 61.4394C126.788 58.8758 127.175 56.4253 127.572 53.8993C126.967 53.8993 126.455 53.8993 125.903 53.8993C126.372 50.9355 126.832 48.0355 127.302 45.0572C124.771 45.0572 122.325 45.0572 119.843 45.0572C119.843 44.1234 119.843 43.2533 119.843 42.3311C125.742 42.3311 131.649 42.3311 137.601 42.3311C137.601 43.2127 137.601 44.0973 137.601 45.034C135.429 45.034 133.274 45.034 131.022 45.034C130.692 47.0553 130.368 49.0418 130.033 51.1124C130.573 51.1124 131.035 51.1124 131.593 51.1124C131.038 54.5634 130.497 57.9333 129.944 61.3756C133.438 61.3756 136.912 61.3756 140.434 61.3756C140.434 62.3297 140.434 63.2171 140.434 64.1451C132.636 64.1451 124.835 64.1451 117 64.1451C117 63.2548 117 62.3848 117 61.4423C120.12 61.4394 123.237 61.4394 126.381 61.4394Z" fill="#1A5AA9"/>
<path d="M21.79 64.2872C20.7653 64.2872 19.7786 64.2872 18.7201 64.2872C18.7201 57.4345 18.7201 50.6136 18.7201 43.7638C17.9332 43.7638 17.2231 43.7638 16.4178 43.7638C16.4178 44.0045 16.4178 44.2365 16.4178 44.4685C16.4178 48.7547 16.4321 53.0409 16.3973 57.3272C16.3942 57.8666 16.2364 58.4582 15.9751 58.9338C15.0007 60.6999 13.9545 62.4283 12.9442 64.1538C11.8858 64.1538 10.9052 64.1538 9.80371 64.1538C9.91027 63.8377 9.95433 63.5651 10.0824 63.336C11.0517 61.6163 12.0497 59.9111 13.0067 58.1856C13.1789 57.8753 13.2916 57.4925 13.2916 57.1416C13.31 52.0636 13.3039 46.9857 13.3039 41.9077C13.3039 41.6699 13.3039 41.4292 13.3039 41.1421C16.1473 41.1421 18.9466 41.1421 21.793 41.1421C21.793 46.7943 21.793 52.4348 21.793 58.0754C21.8412 58.0928 21.8853 58.1102 21.9324 58.1247C23.1661 55.9555 24.4018 53.7891 25.6354 51.6199C25.7061 51.6257 25.7748 51.6315 25.8465 51.6373C25.9029 51.8403 26.0012 52.0404 26.0033 52.2434C26.0217 53.6499 26.0279 55.0564 26.0187 56.463C26.0187 56.6718 25.9592 56.9009 25.8578 57.0836C24.5155 59.479 23.1599 61.8657 21.79 64.2872Z" fill="#1A5AA9"/>
<path d="M54.4912 46.0954C53.525 46.0954 52.5895 46.0954 51.6058 46.0954C51.6058 47.4323 51.6058 48.717 51.6058 50.138C51.9204 49.616 52.156 49.1636 52.4532 48.7518C52.7206 48.3806 52.7503 47.7803 53.4481 47.6643C53.4481 49.1549 53.4983 50.5817 53.4184 52.0027C53.3948 52.4406 53.0178 52.864 52.7821 53.2845C52.5065 53.7833 52.2124 54.2705 51.8937 54.8157C52.2688 55.4827 52.6427 56.1469 53.0178 56.811C53.525 57.71 54.0393 58.6061 54.5445 59.508C54.6162 59.6356 54.6818 59.7864 54.6818 59.9285C54.6838 61.335 54.6726 62.7415 54.6603 64.148C54.6603 64.2263 54.6275 64.3046 54.5568 64.6033C53.1243 62.089 51.7841 59.74 50.4172 57.3446C49.036 59.7139 47.6835 62.031 46.332 64.3481C46.2746 64.3423 46.2152 64.3336 46.1588 64.3278C46.1117 64.1132 46.0256 63.8986 46.0225 63.684C46.0102 62.4979 46.0051 61.3089 46.0287 60.1228C46.0348 59.8763 46.1383 59.6153 46.2603 59.3949C46.8043 58.4147 47.3269 57.4229 47.9417 56.4833C48.3372 55.88 48.4683 55.2739 48.4622 54.5721C48.4356 51.7823 48.4499 48.9925 48.4499 46.1331C45.5266 46.1331 42.6381 46.1331 39.7046 46.1331C39.7046 45.1761 39.7046 44.2887 39.7046 43.352C41.7498 43.352 43.7673 43.352 45.8586 43.352C45.8586 42.5486 45.8586 41.7917 45.8586 41C46.917 41 47.8976 41 48.9581 41C48.9581 41.7366 48.9581 42.4935 48.9581 43.294C49.4459 43.294 49.8557 43.294 50.325 43.294C50.325 42.5834 50.325 41.8874 50.325 41.145C51.3773 41.145 52.3753 41.145 53.4276 41.145C53.4276 41.8497 53.4276 42.5457 53.4276 43.3026C53.8016 43.3259 54.1223 43.3462 54.4912 43.3693C54.4912 44.2713 54.4912 45.1587 54.4912 46.0954Z" fill="#1A5AA9"/>
<path d="M152.093 64.1682C151.036 64.1682 150.066 64.1682 149.039 64.1682C149.039 62.4949 149.039 60.8361 149.039 59.1773C148.985 59.1599 148.932 59.1396 148.878 59.1222C147.886 60.8274 146.896 62.5326 145.826 64.3712C145.794 64.0725 145.764 63.9159 145.764 63.7593C145.761 62.4398 145.726 61.1203 145.782 59.8008C145.803 59.2788 145.939 58.722 146.183 58.2609C146.974 56.7703 147.859 55.3231 148.665 53.8383C148.863 53.4729 148.973 53.0234 148.992 52.6087C149.036 51.4893 149.006 50.3699 149.006 49.1693C147.936 49.1693 146.893 49.1693 145.806 49.1693C145.806 48.2239 145.806 47.351 145.806 46.4027C146.828 46.4027 147.874 46.4027 148.962 46.4027C148.962 45.9242 148.962 45.5211 148.962 45.0687C147.916 45.0687 146.887 45.0687 145.812 45.0687C145.812 44.132 145.812 43.2474 145.812 42.3078C147.428 42.3078 149.042 42.3078 150.729 42.3078C150.729 41.8989 150.729 41.5393 150.729 41.1362C151.802 41.1362 152.801 41.1362 153.835 41.1362C153.835 42.4238 153.835 43.6883 153.835 45.031C153.288 45.031 152.742 45.031 152.153 45.031C152.153 45.4921 152.153 45.8807 152.153 46.3447C152.687 46.3447 153.238 46.3447 153.829 46.3447C153.829 47.2901 153.829 48.1601 153.829 49.0997C153.335 49.0997 152.831 49.0997 152.174 49.0997C152.595 49.816 152.925 50.4337 153.315 51.0137C153.749 51.6604 153.918 52.339 153.888 53.1162C153.838 54.3806 153.873 55.645 153.873 57.1038C153.261 56.0656 152.747 55.1926 152.234 54.3226C152.188 54.3313 152.141 54.34 152.096 54.3487C152.093 57.6229 152.093 60.8941 152.093 64.1682Z" fill="#1A5AA9"/>
<path d="M8.72165 41.1421C8.72165 41.841 8.72165 42.4906 8.72165 43.1895C9.53009 43.1895 10.2873 43.1895 11.0927 43.1895C11.0927 44.0799 11.0927 44.9209 11.0927 45.8228C10.4 45.8228 9.71145 45.8228 8.85485 45.8228C9.22065 46.397 9.53009 46.8465 9.80367 47.3163C10.3027 48.1689 10.7843 49.0331 11.2648 49.8944C11.3273 50.0046 11.3929 50.1293 11.3929 50.2511C11.4021 51.6547 11.399 53.0612 11.2474 54.5924C11.0896 54.4503 10.8816 54.3372 10.7812 54.1661C10.1213 53.0351 9.48501 51.8925 8.73087 50.7644C8.73087 55.2594 8.73087 59.7574 8.73087 64.2872C7.66114 64.2872 6.68056 64.2872 5.61289 64.2872C5.61289 61.364 5.61289 58.4408 5.61289 55.5204C5.56883 55.5117 5.52169 55.5001 5.47661 55.4914C4.36487 57.4287 3.25416 59.3659 2.14243 61.3031C2.09529 61.2857 2.04713 61.2683 2 61.2509C2 59.421 2 57.5911 2 55.7959C2.5738 54.8099 3.14452 53.8326 3.7091 52.8553C3.94887 52.4377 4.11588 51.9621 4.4243 51.6025C5.87519 49.9031 5.64567 47.9079 5.5596 45.875C4.38639 45.875 3.22444 45.875 2.00614 45.875C2.00614 44.9847 2.00614 44.1437 2.00614 43.2243C3.17116 43.2243 4.35052 43.2243 5.57804 43.2243C5.57804 42.5022 5.57804 41.8497 5.57804 41.145C6.62625 41.1421 7.62528 41.1421 8.72165 41.1421Z" fill="#1A5AA9"/>
<path d="M33.5757 43.3607C33.5757 42.5486 33.5757 41.87 33.5757 41.1421C34.6536 41.1421 35.6967 41.1421 36.7961 41.1421C36.7961 41.8381 36.7961 42.5341 36.7961 43.3026C37.4888 43.3026 38.1281 43.3026 38.8085 43.3026C38.8085 44.2626 38.8085 45.15 38.8085 46.1012C38.288 46.1012 37.7828 46.1012 37.1978 46.1012C37.7091 46.9915 38.1784 47.7948 38.6333 48.6068C38.7368 48.7924 38.8413 49.007 38.8433 49.21C38.8618 50.7441 38.8526 52.2782 38.7163 53.8587C38.1281 52.7683 37.5359 51.675 36.9478 50.5846C36.9098 50.5962 36.8709 50.6078 36.832 50.6194C36.832 55.1579 36.832 59.6965 36.832 64.2756C35.7356 64.2756 34.6925 64.2756 33.6054 64.2756C33.6054 61.422 33.6054 58.5916 33.6054 55.7611C33.5634 55.7437 33.5193 55.7292 33.4773 55.7118C32.7016 57.0575 31.926 58.4031 31.1473 59.7487C31.1032 59.74 31.0581 59.7313 31.0141 59.7226C31.0141 58.3306 31.0581 56.9357 30.9987 55.5465C30.9608 54.6562 31.1329 53.8674 31.6555 53.1395C31.8573 52.8553 31.9823 52.5131 32.1934 52.2376C33.5818 50.4251 33.8759 48.3835 33.4834 46.1331C32.7437 46.1331 31.926 46.1331 31.0612 46.1331C31.0612 45.1877 31.0612 44.3177 31.0612 43.3607C31.8553 43.3607 32.6719 43.3607 33.5757 43.3607Z" fill="#1A5AA9"/>
<path d="M155.945 51.1384C160.128 51.1384 164.244 51.1384 168.416 51.1384C168.416 52.0374 168.416 52.9219 168.416 53.8847C166.883 53.8847 165.344 53.8847 163.774 53.8847C163.774 54.6967 163.774 55.4362 163.774 56.2483C164.636 56.2483 165.497 56.2483 166.401 56.2483C166.401 57.2053 166.401 58.0927 166.401 59.0294C165.53 59.0294 164.681 59.0294 163.786 59.0294C163.786 59.8327 163.786 60.5867 163.786 61.39C165.586 61.39 167.379 61.39 169.224 61.39C169.224 62.3209 169.224 63.2083 169.224 64.1421C164.55 64.1421 159.858 64.1421 155.127 64.1421C155.127 63.2547 155.127 62.3702 155.127 61.4335C156.943 61.4335 158.738 61.4335 160.577 61.4335C160.577 60.6302 160.577 59.8762 160.577 59.07C159.775 59.07 158.972 59.07 158.114 59.07C158.114 58.1362 158.114 57.2488 158.114 56.2889C158.916 56.2889 159.733 56.2889 160.588 56.2889C160.588 55.4768 160.588 54.7402 160.588 53.9282C159.062 53.9282 157.523 53.9282 155.938 53.9282C155.945 52.9654 155.945 52.0809 155.945 51.1384Z" fill="#1A5AA9"/>
<path d="M155.139 42.3108C159.861 42.3108 164.532 42.3108 169.241 42.3108C169.241 44.5729 169.241 46.803 169.241 49.0911C164.565 49.0911 159.875 49.0911 155.139 49.0911C155.139 46.8581 155.139 44.6135 155.139 42.3108ZM166.137 46.3419C166.137 45.8808 166.137 45.4922 166.137 45.092C163.48 45.092 160.862 45.092 158.247 45.092C158.247 45.5357 158.247 45.9388 158.247 46.3419C160.898 46.3419 163.498 46.3419 166.137 46.3419Z" fill="#1A5AA9"/>
<path d="M40.745 52.3073C40.3946 52.3073 40.1487 52.3073 39.8516 52.3073C39.8516 51.3996 39.8516 50.5093 39.8516 49.5726C40.121 49.5523 40.4008 49.532 40.7276 49.5059C40.7276 49.0535 40.7276 48.6185 40.7276 48.1371C41.7738 48.1371 42.7718 48.1371 43.8241 48.1371C43.8241 48.5576 43.8241 48.9897 43.8241 49.474C44.026 49.4914 44.1807 49.5059 44.3917 49.5262C44.3917 49.039 44.3917 48.604 44.3917 48.1284C45.4379 48.1284 46.4359 48.1284 47.4882 48.1284C47.4882 48.5721 47.4882 49.0013 47.4882 49.4653C47.6901 49.5146 47.8499 49.5523 48.0262 49.5958C48.0262 50.4745 48.0262 51.3271 48.0262 52.2232C47.8796 52.2696 47.7229 52.3189 47.5149 52.3827C47.5149 53.3774 47.5149 54.3808 47.5149 55.4306C46.4656 55.4306 45.4707 55.4306 44.4184 55.4306C44.4184 54.4156 44.4184 53.4122 44.4184 52.3653C44.2278 52.345 44.0854 52.3305 43.8569 52.3073C43.8569 53.2353 43.8948 54.1314 43.8415 55.0246C43.8118 55.4799 43.6991 55.9701 43.4819 56.3703C42.4152 58.3365 41.3045 60.2766 40.2051 62.2254C40.1661 62.295 40.1067 62.353 39.9376 62.5676C39.9376 61.4453 39.9376 60.4941 39.9376 59.5429C39.9376 58.8846 39.9223 58.2234 39.9376 57.5651C39.9428 57.3099 39.9315 56.9967 40.0708 56.8111C41.0965 55.4335 40.6559 53.8762 40.745 52.3073Z" fill="#1A5AA9"/>
<mask id="mask0_2376_906" style="mask-type:luminance" maskUnits="userSpaceOnUse" x="2" y="0" width="198" height="26">
<path d="M200 0H2V26H200V0Z" fill="white"/>
</mask>
<g mask="url(#mask0_2376_906)">
<path d="M2.20618 25.05C2.20618 23.6912 2.19517 22.4341 2.21517 21.1792C2.21917 20.8693 2.50718 20.6856 2.70518 20.4798C3.71218 19.4351 4.69917 18.3685 5.75117 17.3702C6.25617 16.89 6.17517 16.62 5.70917 16.1906C4.66417 15.2235 3.66617 14.2054 2.65417 13.2028C1.95517 12.5057 1.97317 11.3814 2.68717 10.6842C3.72517 9.67057 4.73517 8.62372 5.81417 7.6588C6.36617 7.16532 6.29118 6.88199 5.79018 6.42384C4.69918 5.42791 3.67917 4.35671 2.60217 3.3475C2.13817 2.91149 2.16617 2.6194 2.63917 2.20111C4.24917 0.773602 4.23817 0.755889 5.75117 2.24096C7.20217 3.66183 8.63618 5.10262 10.1092 6.50133C10.5272 6.8997 10.4912 7.1321 10.0962 7.50612C8.75218 8.77208 7.45017 10.0822 6.10517 11.346C5.72017 11.7067 5.71317 11.9435 6.08717 12.3043C7.35817 13.5326 8.56717 14.8251 9.87617 16.0136C10.4982 16.5801 10.4652 16.921 9.86018 17.4234C9.35718 17.8417 8.94617 18.3729 8.46417 18.8243C8.13017 19.1386 8.05917 19.3777 8.44417 19.7207C9.26917 20.4576 10.0632 21.2323 10.8672 21.9936C11.1092 22.2238 11.3892 22.33 11.7232 22.3278C13.1432 22.3211 14.5642 22.299 15.9822 22.3366C16.6642 22.3544 16.5712 21.9294 16.5912 21.5067C16.6132 21.0243 16.5542 20.6989 15.9292 20.7188C14.6942 20.7587 13.4582 20.7122 12.2222 20.7365C11.6722 20.7476 11.4042 20.6082 11.4222 19.9841C11.4852 17.7576 11.1272 18.1671 13.2382 18.1294C14.1572 18.1117 15.0812 18.0984 16.0002 18.1361C16.6132 18.1604 16.5872 17.7885 16.5962 17.3702C16.6042 16.941 16.5342 16.6886 15.9932 16.7063C14.7332 16.7484 13.4692 16.7041 12.2072 16.7285C11.7072 16.7396 11.4902 16.589 11.5012 16.0579C11.5492 13.6898 11.2192 14.1921 13.3282 14.1412C14.2212 14.1191 15.1182 14.1146 16.0112 14.1434C16.6292 14.1633 16.5822 13.7694 16.5962 13.3577C16.6092 12.9217 16.5122 12.6673 15.9912 12.6738C14.3352 12.696 12.6772 12.6584 11.0212 12.6938C10.4062 12.7071 10.1952 12.5189 10.2122 11.8837C10.2722 9.74364 9.97518 10.0734 11.9982 10.0512C13.3132 10.0379 14.6282 10.0247 15.9432 10.0601C16.4862 10.0756 16.6072 9.85426 16.6042 9.3652C16.6022 8.86276 16.4422 8.65694 15.9212 8.66801C14.6852 8.69458 13.4492 8.66358 12.2132 8.68129C11.7212 8.68794 11.4942 8.52861 11.5052 7.99738C11.5512 5.81743 11.2302 6.1074 13.2952 6.08525C14.1902 6.0764 15.0872 6.04318 15.9762 6.10297C16.4992 6.1384 16.6132 5.94143 16.6072 5.48327C16.6022 5.02512 16.6262 4.66882 15.9652 4.68654C14.3352 4.73072 12.7042 4.66882 11.0742 4.71532C10.3812 4.73515 10.1752 4.52489 10.1952 3.82115C10.2392 2.11254 10.2032 2.11254 11.9192 2.11254C13.2602 2.11254 14.6012 2.08375 15.9432 2.12804C16.4722 2.14575 16.6682 1.98642 16.6242 1.4707C16.5632 0.733745 16.8732 0.40845 17.6362 0.507992C18.0492 0.563349 18.4822 0.561135 18.8962 0.507992C19.6132 0.415093 19.8632 0.771387 19.8062 1.4088C19.7532 2.00192 20.0332 2.11032 20.5492 2.10368C22.1522 2.07932 23.7572 2.11475 25.3632 2.08597C25.9282 2.07489 26.1542 2.22989 26.1502 2.84073C26.1232 5.85728 26.1232 8.87605 26.1482 11.8926C26.1522 12.5012 25.9302 12.6584 25.3632 12.6496C23.7602 12.6208 22.1542 12.6584 20.5512 12.6297C20.0002 12.6186 19.8192 12.8001 19.8192 13.3533C19.8192 13.9088 19.9362 14.17 20.5602 14.1545C22.0842 14.1168 23.6102 14.1611 25.1362 14.1346C25.7212 14.1235 25.9832 14.2741 25.9782 14.9335C25.9702 16.6864 25.9982 16.6864 24.2262 16.6864C23.0692 16.6864 21.9102 16.6997 20.7542 16.682C20.2132 16.6731 19.8042 16.6532 19.8062 17.4367C19.8102 18.1913 20.2152 18.1427 20.7122 18.1383C22.2122 18.1272 23.7112 18.156 25.2092 18.125C25.8052 18.1117 25.9852 18.3352 25.9702 18.9129C25.9172 21.0552 26.2442 20.7077 24.1912 20.7343C23.0082 20.7498 21.8222 20.7764 20.6422 20.7232C19.9532 20.6922 19.8262 20.9689 19.8082 21.5953C19.7882 22.3056 20.1312 22.3455 20.6722 22.3411C22.5662 22.3211 24.4592 22.3477 26.3522 22.3234C26.8842 22.3167 27.1062 22.4606 27.0912 23.0361C27.0272 25.3355 27.4212 24.9903 25.2112 24.9969C20.2682 25.0146 15.3222 24.9925 10.3792 25.0146C9.69317 25.0168 9.18117 24.8176 8.70817 24.3196C7.92717 23.4985 7.07417 22.7461 6.28317 21.9338C5.94017 21.5798 5.71817 21.6041 5.39017 21.9516C4.46617 22.9298 3.51218 23.8793 2.56718 24.8354C2.49618 24.8951 2.39918 24.9305 2.20618 25.05ZM21.4272 9.96718C21.7392 9.96718 22.0562 9.94726 22.3662 9.97161C22.7972 10.0048 22.9002 9.7835 22.8982 9.40063C22.8952 9.0088 22.8382 8.74108 22.3462 8.76987C21.7742 8.80298 21.1982 8.78094 20.6242 8.77651C20.2552 8.77429 19.9012 8.71229 19.9292 9.30763C19.9532 9.82547 20.1472 10.0203 20.6462 9.97161C20.9032 9.94726 21.1652 9.96718 21.4272 9.96718ZM21.4712 4.77943C21.1852 4.77943 20.8972 4.79493 20.6112 4.775C20.1602 4.744 19.9012 4.81265 19.8962 5.39027C19.8922 5.9989 20.1602 6.09189 20.6552 6.06754C21.1762 6.04097 21.6992 6.03432 22.2182 6.06975C22.7042 6.10297 22.9282 5.9679 22.9372 5.43013C22.9462 4.90122 22.7532 4.71965 22.2512 4.775C21.9942 4.80158 21.7302 4.77943 21.4712 4.77943Z" fill="#C00000"/>
<path d="M78.1589 18.8974C77.8679 18.7093 77.5759 18.7956 77.3029 18.7934C71.9379 18.7868 66.5749 18.7801 61.2089 18.8022C60.5799 18.8044 60.3359 18.6606 60.3429 17.9745C60.3629 15.903 60.3319 15.9008 62.3989 15.9008C67.5269 15.9008 72.6549 15.8919 77.7829 15.9118C78.4579 15.9141 78.8179 15.8255 78.6779 15.0066C78.5759 14.4157 78.5979 13.7827 78.6799 13.1874C78.7659 12.5699 78.5149 12.4659 77.9959 12.4681C75.4979 12.4813 72.9999 12.4748 70.5019 12.4748C67.4259 12.4748 64.3489 12.4593 61.2709 12.4858C60.5589 12.4924 60.3279 12.3641 60.4659 11.5518C60.9809 8.55521 61.4159 5.5452 61.8379 2.53529C61.9369 1.83377 62.1639 1.48844 62.9249 1.5748C63.4959 1.63901 64.0809 1.60359 64.6589 1.58366C65.1699 1.56594 65.5099 1.6677 65.3209 2.29182C65.1119 2.9868 65.4779 3.06874 66.0579 3.06652C71.0539 3.05102 76.0499 3.07095 81.0479 3.04216C81.7759 3.03773 82.0659 3.19485 82.0489 3.99601C82.0049 5.97679 82.0419 5.979 80.0369 5.97679C75.1989 5.97457 70.3589 5.98121 65.5209 5.95907C64.9259 5.95686 64.6569 6.1494 64.6089 6.75148C64.5519 7.43529 64.4749 8.12584 64.3159 8.79204C64.1559 9.46256 64.3889 9.59099 65.0109 9.58656C70.0859 9.56663 75.1619 9.57106 80.2369 9.57549C81.9359 9.5777 81.8129 9.36966 81.8039 11.1446C81.7909 14.055 81.7559 16.9652 81.7629 19.8756C81.7649 20.4665 81.5559 20.7808 81.0189 21.0177C78.1059 22.3035 75.2029 23.6093 72.3099 24.9394C71.6429 25.247 71.5949 25.0324 71.5049 24.3949C71.2649 22.6863 71.7839 21.6595 73.5279 21.1283C75.0009 20.6812 76.3709 19.8911 77.7829 19.2471C77.9229 19.1874 78.0969 19.1608 78.1589 18.8974Z" fill="#C00000"/>
<path d="M126.847 11.5873C123.832 15.5422 120.842 19.4662 117.851 23.388C117.777 23.3637 117.704 23.3393 117.629 23.315C117.629 22.432 117.715 21.5378 117.612 20.6658C117.396 18.8554 118.025 17.4456 119.16 16.0513C121.49 13.1852 123.665 10.193 125.895 7.24724C126.031 7.06799 126.308 6.8998 126.205 6.64969C126.084 6.36193 125.783 6.55458 125.567 6.55236C123.043 6.54351 120.519 6.53243 117.994 6.55669C117.387 6.56333 117.167 6.37079 117.163 5.73791C117.143 3.37417 117.123 3.37417 119.5 3.37417C121.761 3.37417 124.024 3.35867 126.284 3.38524C126.821 3.39188 127.008 3.25249 127.01 2.68362C127.016 0.833488 127.041 0.833488 128.901 0.833488C130.609 0.833488 130.455 0.724988 130.394 2.38046C130.363 3.19713 130.596 3.46274 131.394 3.37196C132.019 3.30331 132.657 3.34096 133.285 3.3631C133.701 3.3786 133.829 3.20599 133.842 2.80762C133.862 2.23442 133.58 1.49294 133.98 1.13C134.431 0.720558 135.188 1.00167 135.81 0.990599C137.233 0.966242 137.263 0.983959 137.226 2.46903C137.208 3.13956 137.367 3.4561 138.095 3.36974C138.587 3.30995 139.095 3.38524 139.592 3.35203C140.087 3.31881 140.243 3.53792 140.225 4.00494C140.203 4.61356 140.194 5.2244 140.227 5.83081C140.258 6.38851 140.038 6.56112 139.493 6.55669C136.758 6.53465 134.022 6.56998 131.289 6.53022C130.574 6.51915 130.387 6.69398 130.394 7.44864C130.436 13.006 130.405 18.5655 130.427 24.1228C130.429 24.8952 130.222 25.2604 129.4 25.1386C129.013 25.0811 128.613 25.1299 128.217 25.1299C127.005 25.1299 127.003 25.1299 127.005 23.9457C127.008 20.1346 127.012 16.3236 127.008 12.5124C127.008 12.238 127.107 11.937 126.847 11.5873Z" fill="#C00000"/>
<path d="M88.6743 19.9884C93.3733 17.8283 98.0173 15.6948 102.716 13.5347C102.397 13.2116 102.12 13.3267 101.878 13.3267C98.0413 13.3178 94.2023 13.3045 90.3653 13.3355C89.6503 13.3399 89.4063 13.1385 89.4193 12.3949C89.4573 10.4672 89.4213 10.4672 91.3283 10.4672C97.2693 10.4672 103.211 10.4805 109.152 10.4517C109.887 10.4473 109.981 10.693 110.085 11.3857C110.322 12.9947 109.597 13.672 108.209 14.2673C104.249 15.9714 100.355 17.8349 96.4383 19.6431C96.2343 19.7383 95.9133 19.7604 95.8883 20.0282C95.8583 20.3713 96.2233 20.389 96.4383 20.493C97.2673 20.8935 98.1203 21.2454 98.9413 21.6637C99.4643 21.9315 99.9193 21.8873 100.438 21.6483C103.95 20.0282 107.47 18.428 110.988 16.8257C111.804 16.4539 111.692 16.4849 111.839 17.3901C112.123 19.123 111.415 19.9486 109.827 20.5904C106.806 21.8099 103.875 23.2573 100.935 24.6693C100.042 25.0987 99.2953 25.0787 98.4063 24.656C95.4143 23.2307 92.3833 21.8828 89.3713 20.504C89.1403 20.3956 88.8673 20.3491 88.6743 19.9884Z" fill="#C00000"/>
<path d="M157.021 7.19393C159.176 7.19393 161.333 7.22051 163.488 7.17843C164.204 7.16525 164.438 7.4374 164.363 8.10803C164.336 8.34264 164.347 8.58611 164.376 8.82062C164.486 9.6705 164.105 10.2194 163.389 10.6311C162.087 11.3769 160.805 12.1581 159.516 12.9283C159.358 13.0235 159.202 13.1231 159.059 13.2404C158.885 13.382 158.782 13.5746 158.839 13.8003C158.914 14.0881 159.171 14.0084 159.365 14.0106C160.6 14.0172 161.836 14.015 163.072 14.015C164.754 14.015 166.439 14.0305 168.121 14.0062C168.662 13.9973 168.851 14.1788 168.862 14.7365C168.904 16.8811 168.919 16.8811 166.795 16.8811C164.429 16.8811 162.063 16.9143 159.697 16.8612C158.938 16.8435 158.762 17.098 158.802 17.8017C158.857 18.7778 158.802 19.7605 158.819 20.7387C158.83 21.3318 158.606 21.7169 158.054 21.9869C156.117 22.9341 154.191 23.9101 152.273 24.8973C151.772 25.1539 151.594 25.123 151.611 24.4878C151.693 21.4579 151.088 22.1418 153.852 20.8891C154.98 20.3779 155.508 19.7605 155.389 18.4414C155.248 16.89 155.356 16.8811 153.764 16.8811C151.213 16.8811 148.662 16.8634 146.114 16.8944C145.494 16.901 145.303 16.7129 145.303 16.0866C145.307 14.0792 145.285 14.0792 147.279 14.0792C149.725 14.0792 152.17 14.0637 154.615 14.0903C155.2 14.0969 155.473 13.922 155.363 13.3289C155.222 12.5654 155.622 12.1692 156.236 11.8395C156.955 11.4543 157.636 11.0029 158.333 10.578C158.465 10.496 158.652 10.4186 158.621 10.2415C158.575 9.97376 158.329 10.0777 158.168 10.0777C155.644 10.0711 153.12 10.0401 150.598 10.091C149.788 10.1065 149.562 9.86083 149.582 9.05966C149.63 7.19836 149.59 7.19615 151.418 7.19615C153.287 7.19394 155.154 7.19393 157.021 7.19393Z" fill="#C00000"/>
<path d="M190.079 11.6581C192.709 11.6581 195.339 11.6736 197.967 11.6471C198.525 11.6405 198.677 11.8242 198.679 12.3708C198.692 14.5176 198.71 14.5176 196.601 14.5176C195.007 14.5176 195.007 14.5176 195.007 16.0846C195.007 17.8041 195.02 19.526 194.991 21.2456C194.983 21.7901 195.141 22.007 195.706 21.976C196.467 21.934 197.232 21.9805 197.993 21.9605C198.446 21.9473 198.686 22.08 198.661 22.5847C198.635 23.1402 198.633 23.6979 198.661 24.2512C198.688 24.7536 198.461 24.8798 198.002 24.8753C196.214 24.8576 194.426 24.851 192.639 24.8776C192.06 24.8864 191.935 24.6407 191.937 24.1161C191.955 21.1793 191.931 18.2402 191.961 15.3033C191.968 14.6792 191.801 14.4601 191.17 14.5066C190.437 14.5618 189.696 14.5552 188.962 14.5088C188.357 14.4712 188.137 14.6416 188.155 15.2945C188.201 17.0141 188.151 18.736 188.181 20.4555C188.195 21.135 187.986 21.571 187.374 21.9273C185.694 22.9122 184.05 23.959 182.407 25.0081C181.844 25.3688 181.659 25.2139 181.688 24.6009C181.69 24.5743 181.688 24.5477 181.688 24.5213C181.618 21.6949 181.596 21.6573 183.988 20.1524C184.784 19.6499 185.107 19.1011 185.033 18.1672C184.953 17.1689 184.995 16.1575 185.024 15.1527C185.037 14.6792 184.898 14.4889 184.401 14.511C183.614 14.5463 182.823 14.4977 182.035 14.5264C181.549 14.5441 181.415 14.3538 181.402 13.8802C181.343 11.6603 181.33 11.6603 183.524 11.6603C185.712 11.6581 187.896 11.6581 190.079 11.6581Z" fill="#C00000"/>
<path d="M173.163 13.5459C173.163 9.97391 173.18 6.40178 173.147 2.82974C173.141 2.13476 173.334 1.91343 174.036 1.93115C175.927 1.97765 177.822 1.96436 179.713 1.93558C180.267 1.92672 180.443 2.11483 180.441 2.66377C180.426 7.66553 180.428 12.6652 180.437 17.6669C180.437 18.145 180.265 18.4592 179.869 18.7093C178.779 19.3999 177.712 20.1258 176.617 20.8075C176.189 21.0752 176.002 21.4006 176.021 21.9118C176.052 22.7572 176.015 23.6049 176.035 24.4526C176.046 24.8908 175.885 25.0435 175.443 25.0701C173.152 25.205 173.154 25.2161 173.154 22.9144C173.154 19.7916 173.154 16.6688 173.154 13.5482C173.156 13.5459 173.161 13.5459 173.163 13.5459ZM176.09 11.0804C176.087 11.0804 176.083 11.0804 176.081 11.0804C176.081 13.0347 176.074 14.9889 176.09 16.9432C176.092 17.1446 175.955 17.6492 176.406 17.419C176.954 17.1424 177.556 16.8812 177.543 16.0004C177.499 12.4902 177.521 8.97799 177.541 5.46564C177.543 4.9477 177.444 4.70433 176.857 4.7154C176.309 4.72637 176.061 4.8238 176.074 5.45678C176.116 7.32915 176.09 9.20596 176.09 11.0804Z" fill="#C00000"/>
<path d="M44.0341 17.6247C44.0341 15.4292 44.0511 13.2338 44.0231 11.0405C44.0141 10.4142 44.2341 10.1995 44.8381 10.2039C47.9651 10.2194 51.0921 10.2194 54.2191 10.2039C54.8191 10.2017 55.0501 10.3987 55.0461 11.0317C55.0241 15.4204 55.0241 19.8114 55.0371 24.2001C55.0391 24.7445 54.8771 24.988 54.3181 24.9304C53.5151 24.8486 52.4991 25.2757 51.9631 24.7378C51.4991 24.2709 51.8401 23.275 51.8271 22.5136C51.8051 21.4026 51.8071 20.2916 51.8291 19.1828C51.8381 18.7402 51.6861 18.572 51.2401 18.5808C50.1091 18.6029 48.9791 18.6073 47.8511 18.5786C47.3541 18.5653 47.2291 18.7623 47.2351 19.2314C47.2571 20.8714 47.2261 22.5114 47.2531 24.1491C47.2621 24.7268 47.0701 24.9747 46.4791 24.937C45.9031 24.9017 45.3221 24.8995 44.7461 24.937C44.1941 24.9725 44.0141 24.7644 44.0181 24.2111C44.0421 22.0157 44.0271 19.8224 44.0271 17.6269C44.0291 17.6247 44.0311 17.6247 44.0341 17.6247ZM49.5621 15.8697C50.1111 15.8697 50.6611 15.8542 51.2111 15.8763C51.5391 15.8896 51.6881 15.7966 51.6791 15.4403C51.6621 14.7564 51.6681 14.0704 51.6771 13.3842C51.6791 13.1075 51.6291 12.9438 51.2921 12.9482C50.1141 12.9637 48.9351 12.9549 47.7561 12.9549C47.4821 12.9549 47.3521 13.0744 47.3061 13.3732C46.9561 15.5885 47.1761 15.8674 49.3261 15.8674C49.4061 15.8697 49.4851 15.8697 49.5621 15.8697Z" fill="#C00000"/>
<path d="M168.857 6.46142C168.857 7.44184 168.846 8.42004 168.862 9.40056C168.868 9.8719 168.675 10.0401 168.204 10.0622C165.799 10.1796 165.807 10.1907 165.792 7.79149C165.788 7.13647 166.076 6.28659 165.662 5.87936C165.262 5.48321 164.424 5.76865 163.78 5.76643C158.758 5.7465 153.735 5.74872 148.713 5.72225C148.256 5.72003 148.179 5.917 148.181 6.28437C148.185 7.26479 148.159 8.243 148.19 9.22121C148.21 9.82329 148.025 10.1087 147.383 10.0622C146.807 10.0203 146.226 10.0379 145.648 10.0578C145.245 10.0711 145.074 9.90512 145.076 9.50011C145.083 7.46176 145.085 5.42342 145.078 3.38508C145.076 3.00664 145.245 2.85838 145.606 2.87831C145.764 2.88707 145.923 2.88485 146.079 2.87599C146.6 2.84288 147.22 3.07971 147.616 2.76981C148.018 2.4578 147.735 1.82703 147.772 1.33787C147.8 0.959434 147.968 0.828896 148.319 0.833324C148.924 0.842081 149.531 0.857581 150.134 0.826682C150.641 0.800111 150.877 0.986009 150.824 1.50606C150.811 1.6367 150.842 1.77389 150.82 1.90222C150.696 2.65256 150.974 2.93578 151.752 2.87831C152.667 2.80967 153.592 2.84067 154.512 2.87167C155.022 2.88928 155.195 2.71445 155.2 2.19218C155.211 0.835536 155.233 0.835536 156.616 0.835536C156.722 0.835536 156.827 0.835536 156.933 0.835536C158.415 0.835536 158.219 0.775753 158.197 2.11026C158.188 2.60384 158.314 2.83403 158.852 2.81853C159.956 2.78753 161.062 2.79417 162.166 2.81631C162.619 2.82517 162.815 2.71002 162.823 2.20326C162.848 0.828895 162.872 0.828894 164.284 0.828894C164.389 0.828894 164.495 0.828894 164.6 0.828894C165.922 0.83765 165.845 0.713751 165.788 2.00629C165.755 2.73881 166.019 2.89814 166.687 2.88264C167.382 2.86724 168.272 2.55291 168.73 3.03542C169.148 3.47808 168.835 4.35221 168.862 5.03391C168.879 5.50978 168.866 5.98776 168.866 6.46363C168.857 6.46141 168.857 6.46142 168.857 6.46142Z" fill="#C00000"/>
<path d="M99.6793 3.05764C100.574 3.05764 101.469 3.03107 102.362 3.0665C102.883 3.08643 103.037 2.89821 103.044 2.3848C103.059 0.994939 103.081 0.994942 104.502 0.994942C104.554 0.994942 104.607 0.994942 104.66 0.994942C106.069 0.994942 106.094 0.994941 106.1 2.39587C106.102 2.92921 106.287 3.07536 106.791 3.0665C108.238 3.04214 109.684 3.07314 111.129 3.051C111.628 3.04436 111.859 3.19704 111.826 3.73038C111.793 4.23061 111.791 4.73737 111.826 5.2376C111.866 5.80858 111.611 5.96791 111.081 5.95905C109.687 5.93479 108.293 5.98341 106.901 5.93691C106.256 5.91487 106.034 6.14717 106.12 6.75589C106.124 6.78236 106.122 6.80893 106.12 6.8355C106.052 7.51055 106.441 8.46441 105.942 8.79866C105.256 9.25893 104.262 8.92699 103.402 8.9447C103.015 8.95356 103.039 8.63481 103.035 8.37372C103.028 7.7651 103.017 7.15647 103.033 6.54785C103.044 6.14495 102.892 5.97676 102.483 5.98119C100.616 5.99226 98.7493 5.99226 96.8823 5.98341C96.4763 5.98119 96.3193 6.15159 96.3353 6.55449C96.3553 7.0834 96.3083 7.61453 96.3463 8.14132C96.3883 8.71452 96.1413 8.90042 95.6093 8.85613C94.8553 8.79423 93.9313 9.15496 93.3863 8.70123C92.8413 8.24751 93.2103 7.30694 93.1953 6.58539C93.1843 6.06312 92.9713 5.97234 92.5263 5.97677C91.0793 5.99448 89.6333 5.96127 88.1883 5.99226C87.6033 6.00555 87.4273 5.80415 87.4253 5.21545C87.4183 3.06871 87.3983 3.06871 89.5093 3.06871C90.5083 3.06871 91.5083 3.04657 92.5073 3.07757C93.0063 3.09297 93.1953 2.96021 93.1973 2.42023C93.2013 0.986084 93.2283 0.986084 94.6593 0.986084C94.7383 0.986084 94.8183 0.986084 94.8973 0.986084C96.3303 0.986084 96.3523 0.986084 96.2913 2.42687C96.2693 2.9425 96.4583 3.07314 96.9203 3.06207C97.8393 3.04436 98.7603 3.05764 99.6793 3.05764Z" fill="#C00000"/>
<path d="M37.1913 24.9261C35.6143 24.9261 34.0373 24.904 32.4613 24.9372C31.8653 24.9504 31.7003 24.7358 31.7003 24.1581C31.6933 22.3411 31.6743 22.3478 33.4703 22.3389C35.0163 22.33 34.7783 22.5204 34.7873 20.9778C34.8003 18.5987 34.7543 16.2172 34.8113 13.8381C34.8313 13.0413 34.5723 12.789 33.8373 12.9085C33.7103 12.9284 33.5763 12.9107 33.4443 12.9107C31.7003 12.9107 31.3463 12.4305 31.7293 10.6444C31.8123 10.2505 32.0803 10.2151 32.3683 10.2151C35.6273 10.2085 38.8843 10.2107 42.1433 10.2129C42.5473 10.2129 42.7653 10.3877 42.7563 10.8392C42.7193 13.225 43.0643 12.8754 40.8833 12.9041C40.1723 12.9129 39.4643 12.9218 38.7543 12.8996C38.3303 12.8863 38.1323 13.0126 38.1323 13.4751C38.1433 16.2261 38.1433 18.9749 38.1233 21.7258C38.1193 22.246 38.3633 22.3367 38.8003 22.3278C39.9043 22.3101 41.0083 22.3389 42.1103 22.3145C42.5913 22.3035 42.7563 22.4872 42.7473 22.963C42.6973 25.3909 43.0623 24.8708 40.8913 24.9195C39.6623 24.9482 38.4263 24.9261 37.1913 24.9261Z" fill="#C00000"/>
<path d="M189.982 5.13808C188.353 5.13808 186.723 5.15801 185.096 5.12711C184.569 5.11604 184.41 5.29972 184.426 5.8087C184.454 6.84005 184.415 7.8714 184.443 8.90276C184.459 9.42281 184.267 9.61323 183.757 9.58666C183.155 9.55566 182.548 9.56452 181.945 9.58224C181.532 9.59552 181.4 9.41616 181.402 9.01337C181.415 6.97724 181.424 4.94111 181.4 2.90498C181.393 2.334 181.723 2.34507 182.11 2.34507C183.872 2.34728 185.631 2.32293 187.39 2.35835C188.003 2.37164 188.276 2.18796 188.186 1.55498C188.107 1.01057 188.338 0.793666 188.896 0.824666C189.631 0.864422 190.367 0.853349 191.102 0.829092C191.579 0.813593 191.81 1.00613 191.735 1.47747C191.616 2.22781 191.981 2.34286 192.63 2.32957C194.415 2.29193 196.203 2.334 197.989 2.30521C198.545 2.29636 198.714 2.49111 198.708 3.03783C198.681 4.99425 198.683 6.95077 198.705 8.90718C198.71 9.42281 198.536 9.57781 198.022 9.58888C195.62 9.63528 195.62 9.65078 195.62 7.22071C195.62 5.13587 195.62 5.13586 193.531 5.13586C192.346 5.13808 191.163 5.13808 189.982 5.13808Z" fill="#C00000"/>
<path d="M37.2871 1.58805C38.8381 1.58805 40.3861 1.61019 41.9361 1.57698C42.5251 1.56369 42.7871 1.70973 42.7691 2.36264C42.7191 4.19737 42.9301 3.85436 41.2701 3.88536C40.3501 3.90086 39.4311 3.88093 38.5121 3.89422C38.2901 3.89643 37.9781 3.76579 37.8641 4.01369C37.7381 4.28594 38.0641 4.4032 38.2221 4.55146C39.5301 5.77314 40.8521 6.98153 42.1601 8.20321C42.2991 8.33385 42.5961 8.42674 42.4831 8.67907C42.3821 8.90483 42.1071 8.7765 41.9121 8.80961C41.8851 8.81404 41.8591 8.80519 41.8331 8.81183C39.3371 9.30541 37.5091 8.28735 36.0251 6.32872C35.6731 5.86392 35.2181 5.02733 34.6791 5.2243C34.2701 5.37255 34.5761 6.33093 34.5341 6.92627C34.5081 7.32021 34.5011 7.72079 34.5371 8.11473C34.5891 8.68572 34.3361 8.81847 33.8071 8.82511C31.7201 8.84504 31.7201 8.86054 31.7201 6.78677C31.7201 5.27965 31.7401 3.77243 31.7151 2.26743C31.7071 1.74737 31.8891 1.57919 32.3991 1.58584C34.0311 1.60134 35.6581 1.58805 37.2871 1.58805Z" fill="#C00000"/>
<path d="M54.7694 8.79867C53.5644 8.79867 52.3614 8.80299 51.1564 8.79635C50.6464 8.79424 50.3864 8.38037 50.0724 8.0749C49.0364 7.0679 48.0144 6.04984 46.8094 4.86359C46.8094 5.79309 46.8153 6.55892 46.8063 7.32245C46.7913 8.97349 47.0094 8.80521 45.3354 8.80078C43.8694 8.79867 44.0424 8.99121 44.0344 7.49728C44.0254 5.77759 44.0564 4.06021 44.0254 2.34274C44.0144 1.75183 44.2014 1.57036 44.7884 1.57479C47.9654 1.59914 51.1454 1.59693 54.3254 1.577C54.8744 1.57257 55.0594 1.75404 55.0484 2.3051C55.0134 4.15533 55.1983 3.86546 53.5023 3.88317C52.3593 3.89646 51.2184 3.88538 50.0744 3.88538C50.0484 3.95171 50.0194 4.01814 49.9934 4.08457C51.6164 5.58504 53.2384 7.08783 54.8614 8.58841C54.8304 8.65917 54.8004 8.73002 54.7694 8.79867Z" fill="#C00000"/>
<path d="M140.019 23.8482C138.921 22.4052 137.82 20.9644 136.725 19.5214C135.275 17.6114 133.833 15.6949 132.373 13.7937C132.069 13.3975 131.911 12.9925 131.918 12.4879C131.938 10.9918 131.924 9.49789 131.924 8.01946C132.281 7.96641 132.344 8.17446 132.445 8.31164C134.855 11.4764 137.259 14.648 139.678 17.8084C140.082 18.3352 140.28 18.8796 140.263 19.5569C140.225 20.9733 140.252 22.3919 140.252 23.8084C140.175 23.8194 140.096 23.8327 140.019 23.8482Z" fill="#C00000"/>
<path d="M189.982 9.60432C188.698 9.60432 187.412 9.58218 186.128 9.61539C185.563 9.63079 185.299 9.48475 185.356 8.86727C185.404 8.34279 185.391 7.81156 185.36 7.28486C185.332 6.78685 185.549 6.64967 186.009 6.65188C188.683 6.66517 191.359 6.66296 194.033 6.65188C194.483 6.64967 194.677 6.77357 194.699 7.27158C194.805 9.60654 194.82 9.60654 192.498 9.60654C191.66 9.60432 190.822 9.60432 189.982 9.60432Z" fill="#C00000"/>
</g>
<path d="M2.20618 102.05C2.20618 100.691 2.19517 99.4341 2.21517 98.1792C2.21917 97.8693 2.50718 97.6856 2.70518 97.4798C3.71218 96.4351 4.69917 95.3685 5.75117 94.3702C6.25617 93.89 6.17517 93.62 5.70917 93.1906C4.66417 92.2235 3.66617 91.2054 2.65417 90.2028C1.95517 89.5057 1.97317 88.3814 2.68717 87.6842C3.72517 86.6706 4.73517 85.6237 5.81417 84.6588C6.36617 84.1653 6.29118 83.882 5.79018 83.4238C4.69918 82.4279 3.67917 81.3567 2.60217 80.3475C2.13817 79.9115 2.16617 79.6194 2.63917 79.2011C4.24917 77.7736 4.23817 77.7559 5.75117 79.241C7.20217 80.6618 8.63618 82.1026 10.1092 83.5013C10.5272 83.8997 10.4912 84.1321 10.0962 84.5061C8.75218 85.7721 7.45017 87.0822 6.10517 88.346C5.72017 88.7067 5.71317 88.9435 6.08717 89.3043C7.35817 90.5326 8.56717 91.8251 9.87617 93.0136C10.4982 93.5801 10.4652 93.921 9.86018 94.4234C9.35718 94.8417 8.94617 95.3729 8.46417 95.8243C8.13017 96.1386 8.05917 96.3777 8.44417 96.7207C9.26917 97.4576 10.0632 98.2323 10.8672 98.9936C11.1092 99.2238 11.3892 99.33 11.7232 99.3278C13.1432 99.3211 14.5642 99.299 15.9822 99.3366C16.6642 99.3544 16.5712 98.9294 16.5912 98.5067C16.6132 98.0243 16.5542 97.6989 15.9292 97.7188C14.6942 97.7587 13.4582 97.7122 12.2222 97.7365C11.6722 97.7476 11.4042 97.6082 11.4222 96.9841C11.4852 94.7576 11.1272 95.1671 13.2382 95.1294C14.1572 95.1117 15.0812 95.0984 16.0002 95.1361C16.6132 95.1604 16.5872 94.7885 16.5962 94.3702C16.6042 93.941 16.5342 93.6886 15.9932 93.7063C14.7332 93.7484 13.4692 93.7041 12.2072 93.7285C11.7072 93.7396 11.4902 93.589 11.5012 93.0579C11.5492 90.6898 11.2192 91.1921 13.3282 91.1412C14.2212 91.1191 15.1182 91.1146 16.0112 91.1434C16.6292 91.1633 16.5822 90.7694 16.5962 90.3577C16.6092 89.9217 16.5122 89.6673 15.9912 89.6738C14.3352 89.696 12.6772 89.6584 11.0212 89.6938C10.4062 89.7071 10.1952 89.5189 10.2122 88.8837C10.2722 86.7436 9.97518 87.0734 11.9982 87.0512C13.3132 87.0379 14.6282 87.0247 15.9432 87.0601C16.4862 87.0756 16.6072 86.8543 16.6042 86.3652C16.6022 85.8628 16.4422 85.6569 15.9212 85.668C14.6852 85.6946 13.4492 85.6636 12.2132 85.6813C11.7212 85.6879 11.4942 85.5286 11.5052 84.9974C11.5512 82.8174 11.2302 83.1074 13.2952 83.0853C14.1902 83.0764 15.0872 83.0432 15.9762 83.103C16.4992 83.1384 16.6132 82.9414 16.6072 82.4833C16.6022 82.0251 16.6262 81.6688 15.9652 81.6865C14.3352 81.7307 12.7042 81.6688 11.0742 81.7153C10.3812 81.7351 10.1752 81.5249 10.1952 80.8212C10.2392 79.1125 10.2032 79.1125 11.9192 79.1125C13.2602 79.1125 14.6012 79.0838 15.9432 79.128C16.4722 79.1458 16.6682 78.9864 16.6242 78.4707C16.5632 77.7337 16.8732 77.4085 17.6362 77.508C18.0492 77.5633 18.4822 77.5611 18.8962 77.508C19.6132 77.4151 19.8632 77.7714 19.8062 78.4088C19.7532 79.0019 20.0332 79.1103 20.5492 79.1037C22.1522 79.0793 23.7572 79.1148 25.3632 79.086C25.9282 79.0749 26.1542 79.2299 26.1502 79.8407C26.1232 82.8573 26.1232 85.876 26.1482 88.8926C26.1522 89.5012 25.9302 89.6584 25.3632 89.6496C23.7602 89.6208 22.1542 89.6584 20.5512 89.6297C20.0002 89.6186 19.8192 89.8001 19.8192 90.3533C19.8192 90.9088 19.9362 91.17 20.5602 91.1545C22.0842 91.1168 23.6102 91.1611 25.1362 91.1346C25.7212 91.1235 25.9832 91.2741 25.9782 91.9335C25.9702 93.6864 25.9982 93.6864 24.2262 93.6864C23.0692 93.6864 21.9102 93.6997 20.7542 93.682C20.2132 93.6731 19.8042 93.6532 19.8062 94.4367C19.8102 95.1913 20.2152 95.1427 20.7122 95.1383C22.2122 95.1272 23.7112 95.156 25.2092 95.125C25.8052 95.1117 25.9852 95.3352 25.9702 95.9129C25.9172 98.0552 26.2442 97.7077 24.1912 97.7343C23.0082 97.7498 21.8222 97.7764 20.6422 97.7232C19.9532 97.6922 19.8262 97.9689 19.8082 98.5953C19.7882 99.3056 20.1312 99.3455 20.6722 99.3411C22.5662 99.3211 24.4592 99.3477 26.3522 99.3234C26.8842 99.3167 27.1062 99.4606 27.0912 100.036C27.0272 102.335 27.4212 101.99 25.2112 101.997C20.2682 102.015 15.3222 101.992 10.3792 102.015C9.69317 102.017 9.18117 101.818 8.70817 101.32C7.92717 100.499 7.07417 99.7461 6.28317 98.9338C5.94017 98.5798 5.71817 98.6041 5.39017 98.9516C4.46617 99.9298 3.51218 100.879 2.56718 101.835C2.49618 101.895 2.39918 101.93 2.20618 102.05ZM21.4272 86.9672C21.7392 86.9672 22.0562 86.9473 22.3662 86.9716C22.7972 87.0048 22.9002 86.7835 22.8982 86.4006C22.8952 86.0088 22.8382 85.7411 22.3462 85.7699C21.7742 85.803 21.1982 85.7809 20.6242 85.7765C20.2552 85.7743 19.9012 85.7123 19.9292 86.3076C19.9532 86.8255 20.1472 87.0203 20.6462 86.9716C20.9032 86.9473 21.1652 86.9672 21.4272 86.9672ZM21.4712 81.7794C21.1852 81.7794 20.8972 81.7949 20.6112 81.775C20.1602 81.744 19.9012 81.8126 19.8962 82.3903C19.8922 82.9989 20.1602 83.0919 20.6552 83.0675C21.1762 83.041 21.6992 83.0343 22.2182 83.0698C22.7042 83.103 22.9282 82.9679 22.9372 82.4301C22.9462 81.9012 22.7532 81.7196 22.2512 81.775C21.9942 81.8016 21.7302 81.7794 21.4712 81.7794Z" fill="#C00000"/>
<path d="M99.423 88.5873C96.408 92.5422 93.418 96.4662 90.427 100.388C90.353 100.364 90.28 100.339 90.205 100.315C90.205 99.432 90.291 98.5378 90.188 97.6658C89.972 95.8554 90.601 94.4456 91.736 93.0513C94.066 90.1852 96.241 87.193 98.471 84.2472C98.607 84.068 98.884 83.8998 98.781 83.6497C98.66 83.3619 98.359 83.5546 98.143 83.5524C95.619 83.5435 93.095 83.5324 90.57 83.5567C89.963 83.5633 89.743 83.3708 89.739 82.7379C89.719 80.3742 89.699 80.3742 92.076 80.3742C94.337 80.3742 96.6 80.3587 98.86 80.3852C99.397 80.3919 99.584 80.2525 99.586 79.6836C99.592 77.8335 99.617 77.8335 101.477 77.8335C103.185 77.8335 103.031 77.725 102.97 79.3805C102.939 80.1971 103.172 80.4627 103.97 80.372C104.595 80.3033 105.233 80.341 105.861 80.3631C106.277 80.3786 106.405 80.206 106.418 79.8076C106.438 79.2344 106.156 78.4929 106.556 78.13C107.007 77.7206 107.764 78.0017 108.386 77.9906C109.809 77.9662 109.839 77.984 109.802 79.469C109.784 80.1396 109.943 80.4561 110.671 80.3697C111.163 80.31 111.671 80.3852 112.168 80.352C112.663 80.3188 112.819 80.5379 112.801 81.0049C112.779 81.6136 112.77 82.2244 112.803 82.8308C112.834 83.3885 112.614 83.5611 112.069 83.5567C109.334 83.5346 106.598 83.57 103.865 83.5302C103.15 83.5192 102.963 83.694 102.97 84.4486C103.012 90.006 102.981 95.5655 103.003 101.123C103.005 101.895 102.798 102.26 101.976 102.139C101.589 102.081 101.189 102.13 100.793 102.13C99.581 102.13 99.579 102.13 99.581 100.946C99.584 97.1346 99.588 93.3236 99.584 89.5124C99.584 89.238 99.683 88.937 99.423 88.5873Z" fill="#C00000"/>
<path d="M61.25 96.9884C65.949 94.8283 70.593 92.6948 75.292 90.5347C74.973 90.2116 74.696 90.3267 74.454 90.3267C70.617 90.3178 66.778 90.3045 62.941 90.3355C62.226 90.3399 61.982 90.1385 61.995 89.3949C62.033 87.4672 61.997 87.4672 63.904 87.4672C69.845 87.4672 75.787 87.4805 81.728 87.4517C82.463 87.4473 82.557 87.693 82.661 88.3857C82.898 89.9947 82.173 90.672 80.785 91.2673C76.825 92.9714 72.931 94.8349 69.014 96.6431C68.81 96.7383 68.489 96.7604 68.464 97.0282C68.434 97.3713 68.799 97.389 69.014 97.493C69.843 97.8935 70.696 98.2454 71.517 98.6637C72.04 98.9315 72.495 98.8873 73.014 98.6483C76.526 97.0282 80.046 95.428 83.564 93.8257C84.38 93.4539 84.268 93.4849 84.415 94.3901C84.699 96.123 83.991 96.9486 82.403 97.5904C79.382 98.8099 76.451 100.257 73.511 101.669C72.618 102.099 71.871 102.079 70.982 101.656C67.99 100.231 64.959 98.8828 61.947 97.504C61.716 97.3956 61.443 97.3491 61.25 96.9884Z" fill="#C00000"/>
<path d="M44.0341 94.6247C44.0341 92.4292 44.0511 90.2338 44.0231 88.0405C44.0141 87.4142 44.2341 87.1995 44.8381 87.2039C47.9651 87.2194 51.0921 87.2194 54.2191 87.2039C54.8191 87.2017 55.0501 87.3987 55.0461 88.0317C55.0241 92.4204 55.0241 96.8114 55.0371 101.2C55.0391 101.744 54.8771 101.988 54.3181 101.93C53.5151 101.849 52.4991 102.276 51.9631 101.738C51.4991 101.271 51.8401 100.275 51.8271 99.5136C51.8051 98.4026 51.8071 97.2916 51.8291 96.1828C51.8381 95.7402 51.6861 95.572 51.2401 95.5808C50.1091 95.6029 48.9791 95.6073 47.8511 95.5786C47.3541 95.5653 47.2291 95.7623 47.2351 96.2314C47.2571 97.8714 47.2261 99.5114 47.2531 101.149C47.2621 101.727 47.0701 101.975 46.4791 101.937C45.9031 101.902 45.3221 101.899 44.7461 101.937C44.1941 101.972 44.0141 101.764 44.0181 101.211C44.0421 99.0157 44.0271 96.8224 44.0271 94.6269C44.0291 94.6247 44.0311 94.6247 44.0341 94.6247ZM49.5621 92.8697C50.1111 92.8697 50.6611 92.8542 51.2111 92.8763C51.5391 92.8896 51.6881 92.7966 51.6791 92.4403C51.6621 91.7564 51.6681 91.0704 51.6771 90.3842C51.6791 90.1075 51.6291 89.9438 51.2921 89.9482C50.1141 89.9637 48.9351 89.9549 47.7561 89.9549C47.4821 89.9549 47.3521 90.0744 47.3061 90.3732C46.9561 92.5885 47.1761 92.8674 49.3261 92.8674C49.4061 92.8697 49.4851 92.8697 49.5621 92.8697Z" fill="#C00000"/>
<path d="M72.2549 80.0576C73.1499 80.0576 74.0449 80.0311 74.9379 80.0665C75.4589 80.0864 75.6129 79.8982 75.6199 79.3848C75.6349 77.9949 75.6569 77.9949 77.0779 77.9949C77.1299 77.9949 77.1829 77.9949 77.2359 77.9949C78.6449 77.9949 78.6699 77.9949 78.6759 79.3959C78.6779 79.9292 78.8629 80.0754 79.3669 80.0665C80.8139 80.0421 82.26 80.0731 83.705 80.051C84.204 80.0444 84.4349 80.197 84.4019 80.7304C84.3689 81.2306 84.3669 81.7374 84.4019 82.2376C84.4419 82.8086 84.1869 82.9679 83.6569 82.959C82.2629 82.9348 80.8689 82.9834 79.4769 82.9369C78.8319 82.9149 78.6099 83.1472 78.6959 83.7559C78.6999 83.7824 78.6979 83.8089 78.6959 83.8355C78.6279 84.5106 79.0169 85.4644 78.5179 85.7987C77.8319 86.2589 76.8379 85.927 75.9779 85.9447C75.5909 85.9536 75.6149 85.6348 75.6109 85.3737C75.6039 84.7651 75.5929 84.1565 75.6089 83.5478C75.6199 83.1449 75.4679 82.9768 75.0589 82.9812C73.1919 82.9923 71.3249 82.9923 69.4579 82.9834C69.0519 82.9812 68.8949 83.1516 68.9109 83.5545C68.9309 84.0834 68.8839 84.6145 68.9219 85.1413C68.9639 85.7145 68.7169 85.9004 68.1849 85.8561C67.4309 85.7942 66.5069 86.155 65.9619 85.7012C65.4169 85.2475 65.7859 84.3069 65.7709 83.5854C65.7599 83.0631 65.5469 82.9723 65.1019 82.9768C63.6549 82.9945 62.2089 82.9613 60.7639 82.9923C60.1789 83.0056 60.0029 82.8042 60.0009 82.2155C59.9939 80.0687 59.9739 80.0687 62.0849 80.0687C63.0839 80.0687 64.0839 80.0466 65.0829 80.0776C65.5819 80.093 65.7709 79.9602 65.7729 79.4202C65.7769 77.9861 65.804 77.9861 67.235 77.9861C67.314 77.9861 67.3939 77.9861 67.4729 77.9861C68.9059 77.9861 68.9279 77.9861 68.8669 79.4269C68.8449 79.9425 69.034 80.0731 69.496 80.0621C70.415 80.0444 71.3359 80.0576 72.2549 80.0576Z" fill="#C00000"/>
<path d="M37.1913 101.926C35.6143 101.926 34.0373 101.904 32.4613 101.937C31.8653 101.95 31.7003 101.736 31.7003 101.158C31.6933 99.3411 31.6743 99.3478 33.4703 99.3389C35.0163 99.33 34.7783 99.5204 34.7873 97.9778C34.8003 95.5987 34.7543 93.2172 34.8113 90.8381C34.8313 90.0413 34.5723 89.789 33.8373 89.9085C33.7103 89.9284 33.5763 89.9107 33.4443 89.9107C31.7003 89.9107 31.3463 89.4305 31.7293 87.6444C31.8123 87.2505 32.0803 87.2151 32.3683 87.2151C35.6273 87.2085 38.8843 87.2107 42.1433 87.2129C42.5473 87.2129 42.7653 87.3877 42.7563 87.8392C42.7193 90.225 43.0643 89.8754 40.8833 89.9041C40.1723 89.9129 39.4643 89.9218 38.7543 89.8996C38.3303 89.8863 38.1323 90.0126 38.1323 90.4751C38.1433 93.2261 38.1433 95.9749 38.1233 98.7258C38.1193 99.246 38.3633 99.3367 38.8003 99.3278C39.9043 99.3101 41.0083 99.3389 42.1103 99.3145C42.5913 99.3035 42.7563 99.4872 42.7473 99.963C42.6973 102.391 43.0623 101.871 40.8913 101.92C39.6623 101.948 38.4263 101.926 37.1913 101.926Z" fill="#C00000"/>
<path d="M37.2871 78.588C38.8381 78.588 40.3861 78.6102 41.9361 78.577C42.5251 78.5637 42.7871 78.7097 42.7691 79.3626C42.7191 81.1974 42.9301 80.8544 41.2701 80.8854C40.3501 80.9009 39.4311 80.8809 38.5121 80.8942C38.2901 80.8964 37.9781 80.7658 37.8641 81.0137C37.7381 81.2859 38.0641 81.4032 38.2221 81.5515C39.5301 82.7731 40.8521 83.9815 42.1601 85.2032C42.2991 85.3338 42.5961 85.4267 42.4831 85.6791C42.3821 85.9048 42.1071 85.7765 41.9121 85.8096C41.8851 85.814 41.8591 85.8052 41.8331 85.8118C39.3371 86.3054 37.5091 85.2873 36.0251 83.3287C35.6731 82.8639 35.2181 82.0273 34.6791 82.2243C34.2701 82.3726 34.5761 83.3309 34.5341 83.9263C34.5081 84.3202 34.5011 84.7208 34.5371 85.1147C34.5891 85.6857 34.3361 85.8185 33.8071 85.8251C31.7201 85.845 31.7201 85.8605 31.7201 83.7868C31.7201 82.2797 31.7401 80.7724 31.7151 79.2674C31.7071 78.7474 31.8891 78.5792 32.3991 78.5858C34.0311 78.6013 35.6581 78.588 37.2871 78.588Z" fill="#C00000"/>
<path d="M54.7694 85.7987C53.5644 85.7987 52.3614 85.803 51.1564 85.7964C50.6464 85.7942 50.3864 85.3804 50.0724 85.0749C49.0364 84.0679 48.0144 83.0498 46.8094 81.8636C46.8094 82.7931 46.8153 83.5589 46.8063 84.3224C46.7913 85.9735 47.0094 85.8052 45.3354 85.8008C43.8694 85.7987 44.0424 85.9912 44.0344 84.4973C44.0254 82.7776 44.0564 81.0602 44.0254 79.3427C44.0144 78.7518 44.2014 78.5704 44.7884 78.5748C47.9654 78.5991 51.1454 78.5969 54.3254 78.577C54.8744 78.5726 55.0594 78.754 55.0484 79.3051C55.0134 81.1553 55.1983 80.8655 53.5023 80.8832C52.3593 80.8965 51.2184 80.8854 50.0744 80.8854C50.0484 80.9517 50.0194 81.0181 49.9934 81.0846C51.6164 82.585 53.2384 84.0878 54.8614 85.5884C54.8304 85.6592 54.8004 85.73 54.7694 85.7987Z" fill="#C00000"/>
<path d="M112.595 100.848C111.497 99.4052 110.396 97.9644 109.301 96.5214C107.851 94.6114 106.409 92.6949 104.949 90.7937C104.645 90.3975 104.487 89.9925 104.494 89.4879C104.514 87.9918 104.5 86.4979 104.5 85.0195C104.857 84.9664 104.92 85.1745 105.021 85.3116C107.431 88.4764 109.835 91.648 112.254 94.8084C112.658 95.3352 112.856 95.8796 112.839 96.5569C112.801 97.9733 112.828 99.3919 112.828 100.808C112.751 100.819 112.672 100.833 112.595 100.848Z" fill="#C00000"/>
<mask id="mask1_2376_906" style="mask-type:luminance" maskUnits="userSpaceOnUse" x="57" y="43" width="69" height="20">
<path d="M126 43.094H57V62.9059H126V43.094Z" fill="white"/>
</mask>
<g mask="url(#mask1_2376_906)">
<mask id="mask2_2376_906" style="mask-type:luminance" maskUnits="userSpaceOnUse" x="57" y="43" width="69" height="20">
<path d="M126 43.094H57V62.2227H126V43.094Z" fill="white"/>
</mask>
<g mask="url(#mask2_2376_906)">
<path d="M74.2482 44.8045C76.0126 44.3872 77.421 43.8836 78.991 45.1899C79.0455 45.2356 79.4057 45.3968 79.6814 45.3279C83.6457 44.3389 86.9612 44.7165 90.7276 44.9286C99.7235 45.4373 108.707 46.1564 117.696 46.7962C118.233 46.8341 119.887 46.8531 119.804 47.1877C119.735 47.4636 119.391 47.5394 119.297 47.5489C118.768 47.6015 116.42 47.6705 115.591 47.6705C114.707 47.6705 111.781 47.7334 111.109 47.7386C111.063 47.7386 111.022 47.7671 111.005 47.8102L110.477 49.0975C110.446 49.1725 110.502 49.2553 110.583 49.2553H113.967C114.049 49.2553 114.105 49.3398 114.072 49.4148L113.962 49.6734C113.944 49.7131 113.907 49.7398 113.864 49.7424L110.209 50.008C110.164 50.0114 110.125 50.0399 110.11 50.0821L109.578 51.4961C109.549 51.5755 109.612 51.6583 109.696 51.6505C110.254 51.6005 111.939 51.4513 112.463 51.4048C112.541 51.3979 112.602 51.4695 112.583 51.5453L112.501 51.8704C112.49 51.9143 112.454 51.948 112.41 51.9557L108.266 52.6662C108.178 52.6817 108.107 52.5937 108.14 52.511L110.004 47.8274C110.034 47.7524 109.978 47.6705 109.897 47.6705H107.382C107.335 47.6705 107.293 47.699 107.275 47.7421L105.506 52.1247C105.475 52.2014 105.533 52.2842 105.616 52.2817C105.998 52.2687 106.897 52.236 107.239 52.223C107.31 52.2205 107.365 52.2825 107.355 52.3523L107.316 52.6231C107.309 52.6696 107.275 52.7076 107.229 52.7188C106.621 52.8594 104.869 53.2129 104.31 53.325C104.235 53.3405 104.173 53.2663 104.2 53.1947C104.523 52.361 105.967 48.6198 106.279 47.8223C106.308 47.7481 106.254 47.6688 106.175 47.6662C105.357 47.6464 103.397 47.6653 102.969 47.6696C102.917 47.6705 102.87 47.6972 102.843 47.7421C102.686 48.005 102.145 48.9216 101.939 49.2984C101.897 49.3734 101.951 49.4648 102.037 49.4674L104.112 49.5269C104.189 49.5294 104.243 49.6045 104.218 49.6777L104.152 49.8743C104.138 49.9166 104.1 49.9476 104.055 49.9519L101.564 50.2132C101.527 50.2175 101.493 50.239 101.475 50.2718L100.086 52.793C100.041 52.8723 100.104 52.9688 100.194 52.9628L102.884 52.78C102.956 52.7748 103.015 52.8369 103.006 52.9085L102.964 53.2439C102.958 53.2904 102.925 53.3292 102.879 53.3405C102.408 53.4603 98.4421 54.3673 97.4942 54.5838C97.4164 54.6019 97.3542 54.5191 97.3931 54.4492C97.9461 53.4655 100.584 48.7716 101.133 47.8326C101.176 47.7584 101.125 47.6653 101.039 47.6619C89.3866 47.1704 73.6511 51.8488 70.842 56.8359C70.6942 57.0972 70.7435 57.5093 70.9802 57.6628C71.6413 58.0904 72.5779 57.9352 73.5258 57.8249C81.2117 56.9316 87.2602 55.9832 93.7727 54.3312C93.9307 54.2906 94.4242 54.1992 94.667 54.3553C94.7862 54.432 94.5201 54.6183 94.3231 54.7657C93.7701 55.1813 91.9806 55.9374 91.2807 56.166C91.2781 56.1668 91.2755 56.1677 91.2729 56.1685C83.8177 58.0577 76.3937 60.1063 68.8546 61.6255C67.32 61.9351 64.8851 62.0092 62.9003 61.8661C61.2016 61.7428 59.0327 60.9702 58.8746 59.1501C58.7407 57.6076 59.7232 56.698 61.027 55.8064C63.1734 54.3381 65.5384 53.1525 67.9404 52.1773C71.7855 50.6175 75.7516 49.3544 79.6589 47.943C80.7054 47.5653 82.239 47.3929 83.0642 46.5686C83.4099 46.2237 83.0332 45.9702 82.8569 45.9486C80.9049 45.7055 79.3842 47.4446 77.885 45.7417C77.8435 45.6952 77.1946 45.3391 76.8041 45.3779C72.1554 45.84 64.708 48.5922 58.9179 51.4134C55.2023 53.224 53.8915 54.5381 53.3878 55.3796C52.9955 56.0358 54.2614 56.9342 54.7746 57.8033C54.8939 58.0051 54.7366 58.2603 54.5024 58.2491C53.2841 58.1904 52.2014 57.6619 51.257 56.7799C51.0228 56.5608 50.6081 56.147 50.7463 55.1141C50.7463 55.1141 50.4707 50.4279 74.2482 44.8045Z" fill="#1A5AA9"/>
</g>
</g>
<mask id="mask3_2376_906" style="mask-type:luminance" maskUnits="userSpaceOnUse" x="201" y="-4" width="34" height="31">
<path d="M234.175 -4H201V27H234.175V-4Z" fill="white"/>
</mask>
<g mask="url(#mask3_2376_906)">
<path d="M203.623 14.8111C203.623 11.5235 203.63 8.23583 203.613 4.94962C203.61 4.54141 203.718 4.37901 204.127 4.2929C207.157 3.65426 210.185 3.0059 213.205 2.32283C214.206 2.09653 215.239 1.991 216.203 1.59258C216.345 1.53423 216.509 1.54396 216.667 1.73281C217.776 3.06699 218.923 4.36791 220.032 5.70209C220.304 6.02974 220.55 5.99922 220.889 5.86872C224.336 4.54141 227.79 3.22389 231.24 1.90356C231.903 1.6495 231.906 1.6495 232.123 2.3159C232.374 3.08784 232.606 3.8667 232.88 4.63028C233.003 4.97459 232.952 5.119 232.587 5.23284C230.626 5.84095 228.677 6.48931 226.713 7.08907C226.266 7.22649 226.238 7.39032 226.411 7.79017C227.648 10.6474 228.855 13.5199 230.098 16.3744C230.278 16.7881 230.187 16.938 229.807 17.1102C226.991 18.3847 224.188 19.6884 221.371 20.9601C220.981 21.1364 220.826 21.335 220.858 21.7765C220.933 22.7525 220.934 23.734 221.003 24.7101C221.03 25.1029 220.897 25.1821 220.537 25.1821C215.053 25.1724 209.569 25.1696 204.086 25.1862C203.671 25.1876 203.61 25.0405 203.612 24.6754C203.624 21.3877 203.619 18.1001 203.619 14.8139C203.619 14.8111 203.62 14.8111 203.623 14.8111ZM210.724 9.37012C210.75 9.36737 210.816 9.36737 210.881 9.35345C212.222 9.04802 213.564 8.74397 214.905 8.43298C215.115 8.38442 215.298 8.27889 215.441 8.10259C215.931 7.5014 216.42 6.90022 216.926 6.31295C217.133 6.0728 217.081 5.977 216.805 5.87427C215.899 5.53552 215 5.17729 214.099 4.82325C213.923 4.75385 213.754 4.75522 213.57 4.79828C212.423 5.06901 211.272 5.33556 210.123 5.59656C209.893 5.64935 209.682 5.71738 209.524 5.90617C208.975 6.56427 208.428 7.22649 207.868 7.87486C207.664 8.11089 207.708 8.22198 207.985 8.33026C208.641 8.58707 209.287 8.87446 209.944 9.12996C210.182 9.22713 210.408 9.38123 210.724 9.37012ZM220.58 14.1405C220.58 14.6861 220.591 15.2331 220.576 15.7788C220.565 16.1869 220.676 16.3369 221.114 16.2119C222.565 15.7982 224.023 15.4094 225.483 15.0291C225.782 14.9513 225.788 14.8097 225.714 14.564C225.461 13.724 225.208 12.8841 224.982 12.0372C224.891 11.697 224.776 11.6262 224.445 11.7858C223.276 12.3495 222.097 12.8924 220.911 13.4158C220.563 13.5685 220.412 13.767 220.58 14.1405Z" fill="#C00000"/>
<path d="M212.313 8.64142C211.464 8.65115 210.731 7.92503 210.727 7.07395C210.723 6.21876 211.442 5.49126 212.295 5.48708C213.163 5.4829 213.866 6.18544 213.864 7.05592C213.864 7.94169 213.189 8.63168 212.313 8.64142Z" fill="#C00000"/>
</g>
<mask id="mask4_2376_906" style="mask-type:luminance" maskUnits="userSpaceOnUse" x="0" y="149" width="32" height="30">
<path d="M31.5339 149.534H0V179H31.5339V149.534Z" fill="white"/>
</mask>
<g mask="url(#mask4_2376_906)">
<path d="M2.4924 167.414C2.4924 164.289 2.49896 161.164 2.4833 158.041C2.48066 157.653 2.58245 157.498 2.9714 157.417C5.85174 156.809 8.72944 156.193 11.6007 155.544C12.5521 155.329 13.5335 155.229 14.4497 154.85C14.5854 154.794 14.7407 154.804 14.8908 154.983C15.9453 156.251 17.0351 157.488 18.0896 158.756C18.348 159.067 18.5816 159.038 18.904 158.914C22.181 157.653 25.4633 156.4 28.7429 155.145C29.3735 154.904 29.3761 154.904 29.5824 155.537C29.8212 156.271 30.0414 157.011 30.3015 157.737C30.4188 158.064 30.3707 158.202 30.0233 158.31C28.1597 158.888 26.3065 159.504 24.4403 160.074C24.0148 160.205 23.9885 160.361 24.1529 160.741C25.3289 163.457 26.476 166.187 27.6573 168.9C27.8284 169.293 27.7421 169.436 27.3807 169.6C24.7039 170.811 22.0401 172.05 19.3621 173.259C18.9914 173.427 18.8439 173.615 18.8752 174.035C18.9457 174.963 18.947 175.896 19.0123 176.823C19.0384 177.197 18.9118 177.272 18.5698 177.272C13.3573 177.263 8.14477 177.26 2.93222 177.276C2.53809 177.277 2.48066 177.137 2.48195 176.79C2.49374 173.665 2.48852 170.541 2.48852 167.417C2.48852 167.414 2.48981 167.414 2.4924 167.414ZM9.24235 162.243C9.26717 162.24 9.32977 162.24 9.39113 162.227C10.6662 161.936 11.9413 161.647 13.2163 161.352C13.416 161.306 13.5896 161.205 13.7253 161.038C14.1913 160.466 14.6559 159.895 15.1374 159.337C15.3345 159.108 15.2849 159.017 15.0226 158.92C14.1612 158.598 13.3064 158.257 12.4503 157.921C12.2832 157.855 12.1227 157.856 11.9478 157.897C10.8567 158.154 9.76308 158.408 8.67071 158.656C8.45277 158.706 8.25178 158.771 8.10171 158.95C7.57964 159.575 7.06026 160.205 6.52775 160.821C6.33333 161.046 6.37505 161.151 6.63869 161.254C7.26254 161.498 7.8759 161.771 8.50105 162.014C8.72685 162.107 8.94216 162.253 9.24235 162.243ZM18.6103 166.777C18.6103 167.295 18.6207 167.815 18.6064 168.334C18.5959 168.722 18.7016 168.865 19.118 168.746C20.4975 168.353 21.8835 167.983 23.271 167.621C23.5553 167.548 23.5605 167.413 23.4901 167.179C23.2498 166.381 23.0099 165.583 22.7944 164.778C22.7083 164.454 22.5987 164.387 22.2842 164.539C21.1735 165.074 20.0524 165.59 18.9248 166.088C18.5946 166.233 18.4511 166.422 18.6103 166.777Z" fill="#C00000"/>
<path d="M10.7526 161.55C9.94601 161.559 9.24906 160.869 9.24513 160.06C9.24126 159.247 9.92513 158.556 10.7355 158.552C11.5604 158.548 12.2286 159.215 12.2273 160.043C12.2273 160.885 11.5852 161.541 10.7526 161.55Z" fill="#C00000"/>
</g>
<mask id="mask5_2376_906" style="mask-type:luminance" maskUnits="userSpaceOnUse" x="29" y="149" width="32" height="30">
<path d="M61.0002 149.534H29.4663V179H61.0002V149.534Z" fill="white"/>
</mask>
<g mask="url(#mask5_2376_906)">
<path d="M31.9592 167.414C31.9592 164.289 31.9658 161.164 31.9501 158.041C31.9475 157.653 32.0492 157.498 32.4382 157.417C35.3185 156.809 38.1962 156.193 41.0675 155.544C42.0189 155.329 43.0003 155.229 43.9165 154.85C44.0522 154.794 44.2075 154.804 44.3576 154.983C45.4121 156.251 46.5019 157.488 47.5564 158.756C47.8148 159.067 48.0484 159.038 48.3708 158.914C51.6478 157.653 54.9301 156.4 58.2097 155.145C58.8403 154.904 58.8429 154.904 59.0492 155.537C59.288 156.271 59.5082 157.011 59.7683 157.737C59.8856 158.064 59.8375 158.202 59.4901 158.31C57.6265 158.888 55.7733 159.504 53.9071 160.074C53.4816 160.205 53.4553 160.361 53.6197 160.741C54.7957 163.457 55.9428 166.187 57.1241 168.9C57.2952 169.293 57.2088 169.436 56.8475 169.6C54.1707 170.811 51.5069 172.05 48.8288 173.259C48.4582 173.427 48.3107 173.615 48.342 174.035C48.4125 174.963 48.4138 175.896 48.4791 176.823C48.5052 177.197 48.3786 177.272 48.0366 177.272C42.8241 177.263 37.6116 177.26 32.399 177.276C32.0049 177.277 31.9475 177.137 31.9488 176.79C31.9605 173.665 31.9553 170.541 31.9553 167.417C31.9553 167.414 31.9566 167.414 31.9592 167.414ZM38.7092 162.243C38.734 162.24 38.7966 162.24 38.8579 162.227C40.133 161.936 41.4081 161.647 42.6831 161.352C42.8828 161.306 43.0564 161.205 43.1921 161.038C43.6581 160.466 44.1227 159.895 44.6042 159.337C44.8013 159.108 44.7517 159.017 44.4894 158.92C43.628 158.598 42.7732 158.257 41.9171 157.921C41.75 157.855 41.5895 157.856 41.4146 157.897C40.3235 158.154 39.2299 158.408 38.1375 158.656C37.9196 158.706 37.7186 158.771 37.5685 158.95C37.0464 159.575 36.5271 160.205 35.9945 160.821C35.8001 161.046 35.8418 161.151 36.1055 161.254C36.7293 161.498 37.3427 161.771 37.9678 162.014C38.1937 162.107 38.409 162.253 38.7092 162.243ZM48.0771 166.777C48.0771 167.295 48.0875 167.815 48.0732 168.334C48.0627 168.722 48.1684 168.865 48.5848 168.746C49.9643 168.353 51.3503 167.983 52.7378 167.621C53.0221 167.548 53.0272 167.413 52.9569 167.179C52.7166 166.381 52.4767 165.583 52.2612 164.778C52.1751 164.454 52.0655 164.387 51.751 164.539C50.6403 165.074 49.5192 165.59 48.3916 166.088C48.0614 166.233 47.9179 166.422 48.0771 166.777Z" fill="#C00000"/>
<path d="M40.2194 161.55C39.4128 161.559 38.7159 160.869 38.7119 160.06C38.7081 159.247 39.3919 158.556 40.2023 158.552C41.0272 158.548 41.6954 159.215 41.6941 160.043C41.6941 160.885 41.052 161.541 40.2194 161.55Z" fill="#C00000"/>
</g>
<path d="M173 65.272C174.216 64.696 175.096 63.992 175.64 63.16C176.216 62.328 176.504 61.288 176.504 60.04H173.768V55H178.76V60.04C178.76 63.272 177.224 65.672 174.152 67.24L173 65.272Z" fill="#1A5AA9"/>
<path d="M117 103.272C118.216 102.696 119.096 101.992 119.64 101.16C120.216 100.328 120.504 99.288 120.504 98.04H117.768V93H122.76V98.04C122.76 101.272 121.224 103.672 118.152 105.24L117 103.272Z" fill="#C00000"/>
</g>
<defs>
<clipPath id="clip0_2376_906">
<rect width="316" height="179" fill="white"/>
</clipPath>
</defs>
</svg>
